<svg xmlns="http://www.w3.org/2000/svg" xmlns:xlink="http://www.w3.org/1999/xlink" width="1938" height="63" viewBox="0 0 1938 63">
  <defs>
    <filter id="Footer_Bar" x="0" y="0" width="1938" height="63" filterUnits="userSpaceOnUse">
      <feOffset dx="-5" dy="-5" input="SourceAlpha"/>
      <feGaussianBlur stdDeviation="3" result="blur"/>
      <feFlood flood-opacity="0.161"/>
      <feComposite operator="in" in2="blur"/>
      <feComposite in="SourceGraphic"/>
    </filter>
  </defs>
  <g id="Footer" transform="translate(14 -1021)">
    <g transform="matrix(1, 0, 0, 1, -14, 1021)" filter="url(#Footer_Bar)">
      <path id="Footer_Bar-2" data-name="Footer Bar" d="M0,0H1920V19.615c0,14.02-9.85,25.385-22,25.385H22C9.85,45,0,33.635,0,19.615Z" transform="translate(1934 59) rotate(180)" fill="#262e42"/>
    </g>
    <text id="Contact" transform="translate(1833 1063)" fill="#fff" font-size="16" font-family="Montserrat-Light, Montserrat" font-weight="300"><tspan x="-31.408" y="0">Contact</tspan></text>
    <path id="Icon_material-chat" data-name="Icon material-chat" d="M18.219,3H4.691A1.689,1.689,0,0,0,3.008,4.691L3,19.91l3.382-3.382H18.219a1.7,1.7,0,0,0,1.691-1.691V4.691A1.7,1.7,0,0,0,18.219,3ZM6.382,8.918H16.528v1.691H6.382Zm6.764,4.228H6.382V11.455h6.764Zm3.382-5.073H6.382V6.382H16.528Z" transform="translate(1772 1046)" fill="#fff"/>
    <path id="Footer_Up_Icon" data-name="Footer Up Icon" d="M7.249,12.137l5.571,5.571a.979.979,0,0,1,0,1.389l-.926.926a.979.979,0,0,1-1.389,0L6.553,16.078,2.6,20.027a.979.979,0,0,1-1.389,0L.285,19.1a.979.979,0,0,1,0-1.389l5.571-5.571A.98.98,0,0,1,7.249,12.137ZM5.857,4.272.285,9.843a.979.979,0,0,0,0,1.389l.926.926a.979.979,0,0,0,1.389,0L6.549,8.209,10.5,12.158a.979.979,0,0,0,1.389,0l.926-.926a.979.979,0,0,0,0-1.389L7.241,4.272a.974.974,0,0,0-1.385,0Z" transform="translate(953.003 1045.017)" fill="#fff"/>
    <path id="Instagram_Icon" data-name="Instagram Icon" d="M8.45,6.356a4.335,4.335,0,1,0,4.334,4.335A4.327,4.327,0,0,0,8.45,6.356Zm0,7.153a2.818,2.818,0,1,1,2.817-2.818A2.823,2.823,0,0,1,8.45,13.509Zm5.522-7.33a1.011,1.011,0,1,1-1.011-1.011A1.009,1.009,0,0,1,13.972,6.179Zm2.87,1.026a5,5,0,0,0-1.365-3.542A5.034,5.034,0,0,0,11.935,2.3c-1.4-.079-5.578-.079-6.974,0A5.027,5.027,0,0,0,1.419,3.659,5.02,5.02,0,0,0,.054,7.2c-.079,1.4-.079,5.58,0,6.975a5,5,0,0,0,1.365,3.542,5.041,5.041,0,0,0,3.542,1.366c1.4.079,5.578.079,6.974,0a5,5,0,0,0,3.542-1.366,5.037,5.037,0,0,0,1.365-3.542c.079-1.4.079-5.576,0-6.972Zm-1.8,8.469a2.853,2.853,0,0,1-1.607,1.607c-1.113.441-3.753.34-4.982.34s-3.874.1-4.982-.34a2.853,2.853,0,0,1-1.607-1.607c-.441-1.113-.339-3.754-.339-4.983s-.1-3.874.339-4.983A2.853,2.853,0,0,1,3.467,4.1c1.113-.441,3.753-.34,4.982-.34s3.873-.1,4.982.34a2.853,2.853,0,0,1,1.607,1.607c.441,1.113.339,3.754.339,4.983S15.48,14.565,15.039,15.674Z" transform="translate(55.005 1046.762)" fill="#fff"/>
    <path id="Facebook_Icon" data-name="Facebook Icon" d="M20.473,4.5H5.433a.934.934,0,0,0-.933.933v15.04a.934.934,0,0,0,.933.933h7.52V14.714H10.932V12.249h2.021V10.426a3.212,3.212,0,0,1,3.465-3.372c.933,0,1.937.07,2.171.1V9.435H17.035c-1.061,0-1.264.5-1.264,1.242v1.572H18.3l-.33,2.466h-2.2v6.692h4.7a.934.934,0,0,0,.933-.933V5.433A.934.934,0,0,0,20.473,4.5Z" transform="translate(77.753 1044.5)" fill="#fff"/>
    <path id="LinkedIn_Icon" data-name="LinkedIn Icon" d="M15.7,2.25H1.2A1.213,1.213,0,0,0,0,3.469V17.938a1.213,1.213,0,0,0,1.2,1.219H15.7a1.216,1.216,0,0,0,1.208-1.219V3.469A1.216,1.216,0,0,0,15.7,2.25ZM5.11,16.741H2.6V8.673h2.51v8.068ZM3.857,7.571A1.453,1.453,0,1,1,5.31,6.118,1.454,1.454,0,0,1,3.857,7.571ZM14.5,16.741H12V12.817c0-.936-.019-2.14-1.3-2.14-1.306,0-1.506,1.019-1.506,2.072v3.993H6.683V8.673h2.4v1.1h.034a2.639,2.639,0,0,1,2.374-1.3c2.536,0,3.008,1.672,3.008,3.845Z" transform="translate(109.608 1046.75)" fill="#fff"/>
  </g>
</svg>
