<svg xmlns="http://www.w3.org/2000/svg" width="1900.598" height="1354.924" viewBox="0 0 1900.598 1354.924">
  <g id="Overlay_Shapes" data-name="Overlay Shapes" transform="translate(-193.402 53.201)" style="mix-blend-mode: multiply;isolation: isolate">
    <g id="Group_11808" data-name="Group 11808" transform="matrix(-0.993, 0.122, -0.122, -0.993, 1785.612, 98.684)" style="isolation: isolate">
      <path id="Path_35373" data-name="Path 35373" d="M85.105,282.718a60.4,60.4,0,0,1-19.174-3.155A56.732,56.732,0,0,1,32.9,251.294c-13.851-27.624-1.777-60.939,26.918-74.28l89.936-41.788a59.268,59.268,0,0,1,44.133-2.368,56.683,56.683,0,0,1,33.031,28.269,53.322,53.322,0,0,1,2.461,42.479A55.954,55.954,0,0,1,200,235.394l-89.933,41.792A59.093,59.093,0,0,1,85.105,282.718ZM174.7,132.81a55.938,55.938,0,0,0-23.551,5.206L61.216,179.808c-27.087,12.6-38.487,44.058-25.4,70.128A53.5,53.5,0,0,0,67,276.626a56.159,56.159,0,0,0,41.665-2.234L198.6,232.6A52.9,52.9,0,0,0,226.33,202.59a50.346,50.346,0,0,0-2.328-40.1,53.494,53.494,0,0,0-31.185-26.7A56.82,56.82,0,0,0,174.7,132.81Z" transform="translate(-27.155 -129.693)" fill="#262e42"/>
    </g>
    <g id="Group_11809" data-name="Group 11809" transform="matrix(0.866, -0.5, 0.5, 0.866, 507.94, 1183.779)" style="isolation: isolate">
      <path id="Path_35374" data-name="Path 35374" d="M425.647,79.762a91.191,91.191,0,0,1,17.865,25.13,86.751,86.751,0,0,1,3.072,69.127c-17.855,46.834-71.958,70.96-120.618,53.789L173.48,173.978a91.775,91.775,0,0,1-52.81-46.944A86.687,86.687,0,0,1,117.6,57.907c8.614-22.592,25.934-40.648,48.78-50.832a96.621,96.621,0,0,1,71.823-2.939l152.486,53.83A93.528,93.528,0,0,1,425.647,79.762Zm-283.331,68.9a88.477,88.477,0,0,0,32.969,20.584l152.486,53.83c45.943,16.2,97.025-6.577,113.866-50.79a81.818,81.818,0,0,0-2.9-65.262A86.976,86.976,0,0,0,388.883,62.7L236.4,8.872a91.3,91.3,0,0,0-67.813,2.782c-21.574,9.631-37.922,26.669-46.038,47.99a81.821,81.821,0,0,0,2.876,65.281A85.943,85.943,0,0,0,142.315,148.659Z" transform="matrix(-0.988, 0.156, -0.156, -0.988, 243.107, -53.406)" fill="#262e42"/>
    </g>
    <g id="Group_11810" data-name="Group 11810" transform="translate(1826.528 855.174)" style="isolation: isolate">
      <path id="Path_35375" data-name="Path 35375" d="M506.2,293.669c-73.743,0-133.741-57.745-133.741-128.719s60-128.7,133.741-128.7,133.731,57.731,133.731,128.7S579.945,293.669,506.2,293.669Zm0-252.868c-71.134,0-129.008,55.7-129.008,124.15,0,68.463,57.873,124.163,129.008,124.163s129-55.7,129-124.163C635.2,96.505,577.337,40.8,506.2,40.8Z" transform="translate(-372.462 -36.245)" fill="#262e42"/>
    </g>
    <g id="Group_11811" data-name="Group 11811" transform="matrix(0.574, 0.819, -0.819, 0.574, 1563.321, 1736.679)" style="isolation: isolate">
      <path id="Path_35376" data-name="Path 35376" d="M439.435,346.016a30,30,0,0,1-9.38-1.5L341.022,315.58A27.917,27.917,0,0,1,321.9,294.673a26.991,26.991,0,0,1,9.265-26.415l70.56-59.735a29.547,29.547,0,0,1,28.384-5.49,27.983,27.983,0,0,1,19.133,20.925l18.473,88.688a26.97,26.97,0,0,1-9.27,26.4A29.331,29.331,0,0,1,439.435,346.016ZM420.752,205.971a24.677,24.677,0,0,0-16,5.868l-70.56,59.735a22.73,22.73,0,0,0-7.791,22.219A23.5,23.5,0,0,0,342.492,311.4l89.033,28.935a24.829,24.829,0,0,0,23.885-4.611,22.7,22.7,0,0,0,7.805-22.219l-18.477-88.684a23.52,23.52,0,0,0-16.1-17.595A25.557,25.557,0,0,0,420.752,205.971Z" transform="matrix(0.883, 0.469, -0.469, 0.883, -1976.568, -670.848)" fill="#262e42"/>
    </g>
  </g>
</svg>
