<svg xmlns="http://www.w3.org/2000/svg" xmlns:xlink="http://www.w3.org/1999/xlink" width="225" height="225" viewBox="0 0 225 225">
  <defs>
    <filter id="Path_35468" x="0" y="0" width="225" height="225" filterUnits="userSpaceOnUse">
      <feOffset dx="6" dy="9" input="SourceAlpha"/>
      <feGaussianBlur stdDeviation="12.5" result="blur"/>
      <feFlood flood-opacity="0.161"/>
      <feComposite operator="in" in2="blur"/>
      <feComposite in="SourceGraphic"/>
    </filter>
  </defs>
  <g transform="matrix(1, 0, 0, 1, 0, 0)" filter="url(#Path_35468)" style="mix-blend-mode: multiply;isolation: isolate">
    <g id="Path_35468-2" data-name="Path 35468" transform="translate(31.5 28.5)" fill="#ffffcf">
      <path d="M 75 149 C 65.00962066650391 149 55.31861877441406 147.0435943603516 46.19615936279297 143.1851196289063 C 41.81158065795898 141.3305969238281 37.58256149291992 139.03515625 33.6265983581543 136.3625640869141 C 29.70793914794922 133.7151794433594 26.02300071716309 130.6748046875 22.67410087585449 127.3258972167969 C 19.32519912719727 123.9769973754883 16.28482055664063 120.2920608520508 13.6374397277832 116.3733978271484 C 10.96483993530273 112.4174423217773 8.669400215148926 108.1884231567383 6.814879894256592 103.803840637207 C 2.956399917602539 94.68138122558594 1 84.99037933349609 1 75 C 1 65.00962066650391 2.956399917602539 55.31861877441406 6.814879894256592 46.19615936279297 C 8.669400215148926 41.81158065795898 10.96483993530273 37.58256149291992 13.6374397277832 33.6265983581543 C 16.28482055664063 29.70793914794922 19.32519912719727 26.02300071716309 22.67410087585449 22.67410087585449 C 26.02300071716309 19.32519912719727 29.70793914794922 16.28482055664063 33.6265983581543 13.6374397277832 C 37.58256149291992 10.96483993530273 41.81158065795898 8.669400215148926 46.19615936279297 6.814879894256592 C 55.31861877441406 2.956399917602539 65.00962066650391 1 75 1 C 81.64395904541016 1 88.22847747802734 1.880660057067871 94.57066345214844 3.617539882659912 C 100.7258605957031 5.303219795227051 106.6503219604492 7.793139934539795 112.1794967651367 11.01815986633301 C 123.0994186401367 17.38747978210449 132.3003997802734 26.53260040283203 138.7877349853516 37.46483993530273 C 145.4686584472656 48.72251892089844 149 61.70193862915039 149 75 C 149 84.99037933349609 147.0435943603516 94.68138122558594 143.1851196289063 103.803840637207 C 141.3305969238281 108.1884231567383 139.03515625 112.4174423217773 136.3625640869141 116.3733978271484 C 133.7151794433594 120.2920608520508 130.6748046875 123.9769973754883 127.3258972167969 127.3258972167969 C 123.9769973754883 130.6748046875 120.2920608520508 133.7151794433594 116.3733978271484 136.3625640869141 C 112.4174423217773 139.03515625 108.1884231567383 141.3305969238281 103.803840637207 143.1851196289063 C 94.68138122558594 147.0435943603516 84.99037933349609 149 75 149 Z" stroke="none"/>
      <path d="M 75 2 C 65.14418029785156 2 55.58424377441406 3.929824829101563 46.58571624755859 7.735885620117188 C 42.26059722900391 9.565261840820313 38.08885955810547 11.82962036132813 34.1864013671875 14.466064453125 C 30.32050323486328 17.07781982421875 26.68509674072266 20.07730102539063 23.38120269775391 23.38120269775391 C 20.07730102539063 26.68509674072266 17.07781982421875 30.32050323486328 14.466064453125 34.1864013671875 C 11.82962036132813 38.08885955810547 9.565261840820313 42.26059722900391 7.735885620117188 46.58571624755859 C 3.929824829101563 55.58424377441406 2 65.14418029785156 2 75 C 2 84.85581970214844 3.929824829101563 94.41575622558594 7.735885620117188 103.4142761230469 C 9.565261840820313 107.7393951416016 11.82962036132813 111.9111404418945 14.466064453125 115.8135986328125 C 17.07781982421875 119.6795043945313 20.07730102539063 123.3148956298828 23.38120269775391 126.6187973022461 C 26.68509674072266 129.9226989746094 30.32050323486328 132.9221801757813 34.1864013671875 135.533935546875 C 38.08885955810547 138.1703796386719 42.26059722900391 140.4347381591797 46.58571624755859 142.2641143798828 C 55.58424377441406 146.0701751708984 65.14418029785156 148 75 148 C 84.85581970214844 148 94.41575622558594 146.0701751708984 103.4142761230469 142.2641143798828 C 107.7393951416016 140.4347381591797 111.9111404418945 138.1703796386719 115.8135986328125 135.533935546875 C 119.6795043945313 132.9221801757813 123.3148956298828 129.9226989746094 126.6187973022461 126.6187973022461 C 129.9226989746094 123.3148956298828 132.9221801757813 119.6795043945313 135.533935546875 115.8135986328125 C 138.1703796386719 111.9111404418945 140.4347381591797 107.7393951416016 142.2641143798828 103.4142761230469 C 146.0701751708984 94.41575622558594 148 84.85581970214844 148 75 C 148 61.88147735595703 144.5170745849609 49.07852172851563 137.9277648925781 37.97515869140625 C 131.5269622802734 27.188720703125 122.4491195678711 18.16583251953125 111.6756744384766 11.8819580078125 C 106.2216415405273 8.700759887695313 100.3778228759766 6.244720458984375 94.3065185546875 4.582015991210938 C 88.05039978027344 2.86871337890625 81.55474090576172 2 75 2 M 75 0 C 102.4623565673828 0 126.4773025512695 14.76011657714844 139.6477203369141 36.95452117919922 C 146.1864929199219 47.97270202636719 150 61.04100036621094 150 75 C 150 116.4213562011719 116.4213562011719 150 75 150 C 33.57864379882813 150 0 116.4213562011719 0 75 C 0 33.57864379882813 33.57864379882813 0 75 0 Z" stroke="none" fill="#262e42"/>
    </g>
  </g>
</svg>
