<svg xmlns="http://www.w3.org/2000/svg" width="13.113" height="16.333" viewBox="0 0 13.113 16.333">
  <path id="Footer_Up_Icon" data-name="Footer Up Icon" d="M7.249,12.137l5.571,5.571a.979.979,0,0,1,0,1.389l-.926.926a.979.979,0,0,1-1.389,0L6.553,16.078,2.6,20.027a.979.979,0,0,1-1.389,0L.285,19.1a.979.979,0,0,1,0-1.389l5.571-5.571A.98.98,0,0,1,7.249,12.137ZM5.857,4.272.285,9.843a.979.979,0,0,0,0,1.389l.926.926a.979.979,0,0,0,1.389,0L6.549,8.209,10.5,12.158a.979.979,0,0,0,1.389,0l.926-.926a.979.979,0,0,0,0-1.389L7.241,4.272a.974.974,0,0,0-1.385,0Z" transform="translate(0.004 -3.983)" fill="#fff"/>
</svg>
