<svg width="20" height="20" xmlns="http://www.w3.org/2000/svg" xmlns:xlink="http://www.w3.org/1999/xlink" xmlns:svgjs="http://svgjs.com/svgjs" fill="#262e42"><svg xmlns="http://www.w3.org/2000/svg" width="20" height="20"><path paint-order="stroke fill markers" fill-rule="evenodd" d="M10 11.25a5.626 5.626 0 0 0 5.625-5.625A5.626 5.626 0 0 0 10 0a5.626 5.626 0 0 0-5.625 5.625A5.626 5.626 0 0 0 10 11.25zm5 1.25h-2.152a6.807 6.807 0 0 1-5.696 0H5a5 5 0 0 0-5 5v.625C0 19.16.84 20 1.875 20h16.25C19.16 20 20 19.16 20 18.125V17.5a5 5 0 0 0-5-5z"/></svg></svg>