<svg xmlns="http://www.w3.org/2000/svg" width="16.906" height="16.906" viewBox="0 0 16.906 16.906">
  <path id="Instagram_Icon" data-name="Instagram Icon" d="M8.45,6.356a4.335,4.335,0,1,0,4.334,4.335A4.327,4.327,0,0,0,8.45,6.356Zm0,7.153a2.818,2.818,0,1,1,2.817-2.818A2.823,2.823,0,0,1,8.45,13.509Zm5.522-7.33a1.011,1.011,0,1,1-1.011-1.011A1.009,1.009,0,0,1,13.972,6.179Zm2.87,1.026a5,5,0,0,0-1.365-3.542A5.034,5.034,0,0,0,11.935,2.3c-1.4-.079-5.578-.079-6.974,0A5.027,5.027,0,0,0,1.419,3.659,5.02,5.02,0,0,0,.054,7.2c-.079,1.4-.079,5.58,0,6.975a5,5,0,0,0,1.365,3.542,5.041,5.041,0,0,0,3.542,1.366c1.4.079,5.578.079,6.974,0a5,5,0,0,0,3.542-1.366,5.037,5.037,0,0,0,1.365-3.542c.079-1.4.079-5.576,0-6.972Zm-1.8,8.469a2.853,2.853,0,0,1-1.607,1.607c-1.113.441-3.753.34-4.982.34s-3.874.1-4.982-.34a2.853,2.853,0,0,1-1.607-1.607c-.441-1.113-.339-3.754-.339-4.983s-.1-3.874.339-4.983A2.853,2.853,0,0,1,3.467,4.1c1.113-.441,3.753-.34,4.982-.34s3.873-.1,4.982.34a2.853,2.853,0,0,1,1.607,1.607c.441,1.113.339,3.754.339,4.983S15.48,14.565,15.039,15.674Z" transform="translate(0.005 -2.238)" fill="#fff"/>
</svg>
