<svg xmlns="http://www.w3.org/2000/svg" width="16.906" height="16.906" viewBox="0 0 16.906 16.906">
  <path id="LinkedIn_Icon" data-name="LinkedIn Icon" d="M15.7,2.25H1.2A1.213,1.213,0,0,0,0,3.469V17.938a1.213,1.213,0,0,0,1.2,1.219H15.7a1.216,1.216,0,0,0,1.208-1.219V3.469A1.216,1.216,0,0,0,15.7,2.25ZM5.11,16.741H2.6V8.673h2.51v8.068ZM3.857,7.571A1.453,1.453,0,1,1,5.31,6.118,1.454,1.454,0,0,1,3.857,7.571ZM14.5,16.741H12V12.817c0-.936-.019-2.14-1.3-2.14-1.306,0-1.506,1.019-1.506,2.072v3.993H6.683V8.673h2.4v1.1h.034a2.639,2.639,0,0,1,2.374-1.3c2.536,0,3.008,1.672,3.008,3.845Z" transform="translate(0 -2.25)" fill="#fff"/>
</svg>
