<svg xmlns="http://www.w3.org/2000/svg" width="585.382" height="511.367" viewBox="0 0 585.382 511.367">
  <g id="Login-amico" transform="translate(0 -1)" style="mix-blend-mode: multiply;isolation: isolate">
    <g id="freepik--Floor--inject-35" transform="translate(0 207.332)">
      <ellipse id="freepik--floor--inject-35-2" data-name="freepik--floor--inject-35" cx="292.691" cy="152.517" rx="292.691" ry="152.517" fill="#f0f0f0"/>
    </g>
    <g id="freepik--Shadow--inject-35" transform="translate(17.792 228.354)">
      <path id="freepik--shadow--inject-35-2" data-name="freepik--shadow--inject-35" d="M387.167,401.946c-19.193-10-19.193-26.214,0-36.215s50.312-10,69.5,0,19.193,26.214,0,36.215S406.36,411.947,387.167,401.946Z" transform="translate(55.823 -217.53)" fill="#e0e0e0"/>
      <path id="freepik--shadow--inject-35-3" data-name="freepik--shadow--inject-35" d="M80.382,418.546,29.9,392.242c-2.845-1.48-2.845-3.891,0-5.371L323.556,233.85a12.5,12.5,0,0,1,10.3,0l50.5,26.3c2.845,1.48,2.845,3.891,0,5.371L90.693,418.546a12.523,12.523,0,0,1-10.311,0Z" transform="translate(-27.763 -232.74)" fill="#e0e0e0"/>
    </g>
    <g id="freepik--Device--inject-35" transform="translate(57.356 1)">
      <g id="freepik--device--inject-35-2" data-name="freepik--device--inject-35">
        <path id="Path_34685" data-name="Path 34685" d="M230.828,369.017l43.4-22.648c4.472-2.332,6.708-5.382,6.708-8.443v-5.449l-45.02-22.917a8.447,8.447,0,0,1-4.323-6.727V254.52L155.82,294.054v48.29a8.512,8.512,0,0,0,4.323,6.727l38.312,19.913C207.374,373.681,221.884,373.681,230.828,369.017Z" transform="translate(-34.301 -1.745)" fill="#57bb72"/>
        <g id="Group_11770" data-name="Group 11770" transform="translate(121.519 252.775)" opacity="0.6">
          <path id="Path_34686" data-name="Path 34686" d="M230.828,369.017l43.4-22.648c4.472-2.332,6.708-5.382,6.708-8.443v-5.449l-45.02-22.917a8.447,8.447,0,0,1-4.323-6.727V254.52L155.82,294.054v48.29a8.512,8.512,0,0,0,4.323,6.727l38.312,19.913C207.374,373.681,221.884,373.681,230.828,369.017Z" transform="translate(-155.82 -254.52)"/>
        </g>
        <path id="Path_34687" data-name="Path 34687" d="M174,347.438v5.427l-13.889-7.232a8.476,8.476,0,0,1-4.311-6.727V290.593l14.435-7.523c.3,3.308.621,6.727.932,10.091l-10.149,5.27v37.729a8.436,8.436,0,0,0,4.323,6.727Z" transform="translate(-34.306 1.715)" opacity="0.3"/>
        <path id="Path_34688" data-name="Path 34688" d="M160,338.783a8.49,8.49,0,0,0,4.323,6.727l33.069,17.2c8.944,4.653,23.454,4.664,32.411,0l43.479-22.648c8.957-4.664,8.957-12.221,0-16.885l-33.094-17.2a8.5,8.5,0,0,1-4.311-6.727V261.51L160.1,301.044Z" transform="translate(-33.289 -0.898)" fill="#57bb72"/>
        <path id="Path_34689" data-name="Path 34689" d="M160,338.783a8.49,8.49,0,0,0,4.323,6.727l33.069,17.2c8.944,4.653,23.454,4.664,32.411,0l43.479-22.648c8.957-4.664,8.957-12.221,0-16.885l-33.094-17.2a8.5,8.5,0,0,1-4.311-6.727V261.51L160.1,301.044Z" transform="translate(-33.289 -0.898)" opacity="0.3"/>
        <path id="Path_34690" data-name="Path 34690" d="M248.937,310.585h0L240.129,306a8.5,8.5,0,0,1-4.311-6.727V261.51L160.04,301.044v37.74a8.49,8.49,0,0,0,4.323,6.727l8.7,4.485Z" transform="translate(-33.279 -0.898)" opacity="0.5"/>
        <path id="Path_34691" data-name="Path 34691" d="M269.354,324.06v5.449c0,3.061-2.249,6.1-6.708,8.443l-43.479,22.637a35.432,35.432,0,0,1-15.466,3.465v-5.427a35.431,35.431,0,0,0,15.466-3.465L262.646,332.5C267.105,330.182,269.354,327.121,269.354,324.06Z" transform="translate(-22.701 6.683)" fill="#57bb72"/>
        <path id="Path_34692" data-name="Path 34692" d="M269.354,324.06v5.449c0,3.061-2.249,6.1-6.708,8.443l-43.479,22.637a35.432,35.432,0,0,1-15.466,3.465v-5.427a35.431,35.431,0,0,0,15.466-3.465L262.646,332.5C267.105,330.182,269.354,327.121,269.354,324.06Z" transform="translate(-22.701 6.683)" opacity="0.5"/>
        <path id="Path_34693" data-name="Path 34693" d="M62.969,413.856a12.74,12.74,0,0,0,10.472-.168L366.617,260.924a10.63,10.63,0,0,0,5.4-8.443V38.421a10.24,10.24,0,0,0-5.044-8.308,12.671,12.671,0,0,0-10.46.179L63.342,183.1A10.57,10.57,0,0,0,58,191.566V405.592a10.229,10.229,0,0,0,4.969,8.263Z" transform="translate(-58 -29.071)" fill="#57bb72"/>
        <path id="Path_34694" data-name="Path 34694" d="M71.514,413.042,364.689,260.278a10.6,10.6,0,0,0,5.4-8.443V37.786c0-3.106-2.422-4.373-5.4-2.814L71.514,187.736a10.619,10.619,0,0,0-5.4,8.443V410.228C66.11,413.333,68.532,414.6,71.514,413.042Z" transform="translate(-56.035 -28.436)" fill="#57bb72"/>
        <path id="Path_34695" data-name="Path 34695" d="M71.514,413.042,364.689,260.278a10.6,10.6,0,0,0,5.4-8.443V37.786c0-3.106-2.422-4.373-5.4-2.814L71.514,187.736a10.619,10.619,0,0,0-5.4,8.443V410.228C66.11,413.333,68.532,414.6,71.514,413.042Z" transform="translate(-56.035 -28.436)" opacity="0.5"/>
        <path id="Path_34696" data-name="Path 34696" d="M72.684,380.082a12.745,12.745,0,0,1-9.715-.179A10.226,10.226,0,0,1,58,371.617V352.13l10.125,5.292v19.487C68.062,379.745,70.062,381.035,72.684,380.082Z" transform="translate(-58 10.085)" fill="#57bb72"/>
        <path id="Path_34697" data-name="Path 34697" d="M72.684,380.082a12.745,12.745,0,0,1-9.715-.179A10.226,10.226,0,0,1,58,371.617V352.13l10.125,5.292v19.487C68.062,379.745,70.062,381.035,72.684,380.082Z" transform="translate(-58 10.085)" opacity="0.5"/>
        <path id="Path_34698" data-name="Path 34698" d="M66.1,373.977v19.487c0,3.106,2.485,4.362,5.4,2.814L364.679,243.514a10.636,10.636,0,0,0,5.4-8.4V215.54Z" transform="translate(-56.038 -6.47)" fill="#57bb72"/>
        <path id="Path_34699" data-name="Path 34699" d="M66.11,373.932v19.531c0,3.106,2.485,4.362,5.4,2.814L364.689,243.514a10.633,10.633,0,0,0,5.391-8.4V215.54Z" transform="translate(-56.035 -6.47)" opacity="0.3"/>
        <path id="Path_34700" data-name="Path 34700" d="M74.26,369.829V197.6a6.351,6.351,0,0,1,3.23-5.068L354.69,48.043c1.789-.931,3.242-.179,3.242,1.682V222.043a6.365,6.365,0,0,1-3.242,5.068L77.5,371.566C75.713,372.5,74.26,371.735,74.26,369.829Z" transform="translate(-54.061 -26.819)" fill="#57bb72"/>
        <path id="Path_34701" data-name="Path 34701" d="M74.26,369.829V197.6a6.351,6.351,0,0,1,3.23-5.068L354.69,48.043c1.789-.931,3.242-.179,3.242,1.682V222.043a6.365,6.365,0,0,1-3.242,5.068L77.5,371.566C75.713,372.5,74.26,371.735,74.26,369.829Z" transform="translate(-54.061 -26.819)" fill="#263238"/>
        <path id="Path_34702" data-name="Path 34702" d="M189.438,291.8a9.946,9.946,0,0,0-5.068,7.916c0,2.915,2.273,4.1,5.068,2.646a9.945,9.945,0,0,0,5.068-7.927C194.507,291.517,192.234,290.34,189.438,291.8Z" transform="translate(-27.384 2.697)" fill="#57bb72"/>
        <path id="Path_34703" data-name="Path 34703" d="M69.665,174.947a9.652,9.652,0,0,0-1.6,4.81V379.533L58,374.241V174.521a9.285,9.285,0,0,1,1.59-4.821Z" transform="translate(-58 -12.026)" opacity="0.7"/>
        <path id="Path_34704" data-name="Path 34704" d="M371.7,37.609c-.385-2.511-2.634-3.364-5.354-2.007L73.171,188.366a10.55,10.55,0,0,0-3.814,3.621L59.22,186.706a10.626,10.626,0,0,1,3.826-3.621L356.222,30.332a12.7,12.7,0,0,1,10.472-.179,10.4,10.4,0,0,1,5.006,7.456Z" transform="translate(-57.704 -29.066)" opacity="0.3"/>
      </g>
    </g>
    <g id="freepik--Window--inject-35" transform="translate(101.983 34.627)">
      <g id="freepik--window--inject-35-2" data-name="freepik--window--inject-35">
        <g id="freepik--window--inject-35-3" data-name="freepik--window--inject-35">
          <g id="freepik--window--inject-35-4" data-name="freepik--window--inject-35">
            <path id="Path_34705" data-name="Path 34705" d="M378.7,60.218a2.929,2.929,0,0,0-2.758.191L99.318,204.64a7.4,7.4,0,0,0-3.727,5.909V381.723a3.262,3.262,0,0,0,1.6,2.971c.609.3,3.863,2.007,4.832,2.478a2.376,2.376,0,0,0,2.186-.112L380.779,242.828a7.4,7.4,0,0,0,3.727-5.909V64.86a2.279,2.279,0,0,0-1.168-2.242C382.717,62.247,379.4,60.588,378.7,60.218Z" transform="translate(-95.522 -59.954)" fill="#57bb72"/>
            <path id="Path_34706" data-name="Path 34706" d="M103.207,206.8,379.848,62.622c2.087-1.121,3.727-.2,3.727,1.973v172.06a7.4,7.4,0,0,1-3.727,5.909L103.207,386.8c-2.087,1.121-3.727-.684-3.727-2.859V212.706a7.424,7.424,0,0,1,3.727-5.909Z" transform="translate(-94.578 -59.69)" fill="#fafafa"/>
            <path id="Path_34707" data-name="Path 34707" d="M381.537,63.271h0c.733,0,.845.83.845,1.323v172.06a6.278,6.278,0,0,1-3.168,4.933l-276.6,144.232a1.337,1.337,0,0,1-.621.179c-.7,0-1.242-.964-1.242-2.063V212.705a6.325,6.325,0,0,1,3.106-4.967L380.469,63.585a2.365,2.365,0,0,1,1.068-.314m0-1.121a3.751,3.751,0,0,0-1.689.471L103.207,206.8a7.424,7.424,0,0,0-3.727,5.909v171.23c0,1.727,1.068,3.184,2.485,3.184a2.686,2.686,0,0,0,1.242-.325L379.835,242.563a7.4,7.4,0,0,0,3.727-5.909V64.594c0-1.547-.845-2.444-2.087-2.444Z" transform="translate(-94.578 -59.689)" fill="#e0e0e0"/>
            <path id="Path_34708" data-name="Path 34708" d="M97.132,367.221c.41.191,3.354,1.7,4.646,2.377a3.346,3.346,0,0,1-1.391-2.87V206.676l-4.845-2.556V364.25a3.259,3.259,0,0,0,1.59,2.971Z" transform="translate(-95.534 -42.481)" fill="#f0f0f0"/>
            <path id="Path_34709" data-name="Path 34709" d="M383.624,64.56c0-2.153-1.7-3.027-3.727-1.94L103.207,206.8A7.424,7.424,0,0,0,99.48,212.7v11.212L383.624,75.772Z" transform="translate(-94.578 -59.688)" fill="#57bb72"/>
            <g id="Group_11771" data-name="Group 11771" transform="translate(1.163)" opacity="0.4">
              <path id="Path_34710" data-name="Path 34710" d="M380.577,62.887,103.936,207.051a7.367,7.367,0,0,0-2.658,2.545l-4.808-2.523a7.11,7.11,0,0,1,2.634-2.433L375.732,60.409a2.929,2.929,0,0,1,2.758-.2c.671.381,3.814,1.985,4.621,2.377a2.982,2.982,0,0,0-2.534.3Z" transform="translate(-96.47 -59.955)" fill="grey"/>
            </g>
            <path id="Path_34711" data-name="Path 34711" d="M95.54,205.7V194.59a6.528,6.528,0,0,1,1.155-3.42l4.82,2.512a6.349,6.349,0,0,0-1.13,3.364v11.212Z" transform="translate(-95.533 -44.051)" opacity="0.15"/>
          </g>
        </g>
        <path id="Path_34712" data-name="Path 34712" d="M314.1,179.485,148.42,265.818a5.427,5.427,0,0,0-2.77,4.317v42.875a5.427,5.427,0,0,0,2.77,4.317l4.832,2.511a6.731,6.731,0,0,0,5.541,0L324.45,233.5a5.448,5.448,0,0,0,2.77-4.328V186.291a5.427,5.427,0,0,0-2.77-4.317l-4.845-2.511a6.691,6.691,0,0,0-5.5.022Z" transform="translate(-83.393 -45.54)" fill="#57bb72"/>
        <path id="Path_34713" data-name="Path 34713" d="M327.06,185.908c-.2-1.289-1.354-1.76-2.745-1.032L158.633,271.209a5.294,5.294,0,0,0-1.95,1.861l-10.373-5.4a5.394,5.394,0,0,1,1.938-1.839l165.694-86.333a6.69,6.69,0,0,1,5.528,0l4.845,2.512A5.582,5.582,0,0,1,327.06,185.908Z" transform="translate(-83.233 -45.539)" fill="#fff" opacity="0.5"/>
        <path id="Path_34714" data-name="Path 34714" d="M158.321,310.453a6.823,6.823,0,0,1-5.056-.2l-4.845-2.511a5.449,5.449,0,0,1-2.77-4.317V260.548a4.831,4.831,0,0,1,.82-2.478l10.373,5.4a4.676,4.676,0,0,0-.82,2.455v42.886A1.591,1.591,0,0,0,158.321,310.453Z" transform="translate(-83.393 -35.942)" fill="#263238"/>
        <path id="Path_34715" data-name="Path 34715" d="M322.447,232.916,156.79,319.249c-1.528.8-2.77.146-2.77-1.446V274.927S324.081,231.954,322.447,232.916Z" transform="translate(-81.365 -44.929)" fill="#57bb72"/>
        <path id="Path_34716" data-name="Path 34716" d="M270.033,199.84,148.268,263.289a5.393,5.393,0,0,0-1.938,1.839l10.375,5.4a5.3,5.3,0,0,1,1.951-1.861L280.42,205.233Z" transform="translate(-83.253 -43)" fill="#455a64"/>
        <path id="Path_34717" data-name="Path 34717" d="M278.513,204.65,156.77,268.088a5.448,5.448,0,0,0-2.77,4.328v42.864c0,1.592,1.242,2.242,2.77,1.446l121.742-63.438Z" transform="translate(-81.37 -42.417)" fill="#37474f"/>
        <path id="Path_34718" data-name="Path 34718" d="M179.751,260.174l62.822-32.728c2.6-1.357,4.708-.392,4.708,2.153a9.028,9.028,0,0,1-4.721,7.064L179.751,269.4c-2.6,1.357-4.721.392-4.721-2.153A9.059,9.059,0,0,1,179.751,260.174Z" transform="translate(-76.275 -39.729)" fill="#57bb72"/>
        <path id="Path_34719" data-name="Path 34719" d="M190.232,266.244a.133.133,0,0,1,.186,0,.385.385,0,0,1,.075.258v6.38a9.684,9.684,0,0,1-.174,1.839,6.6,6.6,0,0,1-.522,1.615,5.639,5.639,0,0,1-.87,1.323,4.487,4.487,0,0,1-1.242.931,2.48,2.48,0,0,1-1.242.336,1.287,1.287,0,0,1-.87-.415,2.4,2.4,0,0,1-.522-1.121,7.015,7.015,0,0,1-.162-1.648V269.35a.74.74,0,0,1,.075-.325.41.41,0,0,1,.186-.224l.783-.415a.148.148,0,0,1,.186,0,.364.364,0,0,1,.075.258v6.3a3.851,3.851,0,0,0,.112,1.032,1.076,1.076,0,0,0,.3.583.588.588,0,0,0,.46.179,1.335,1.335,0,0,0,.6-.179,2.4,2.4,0,0,0,1.068-1.11,3.935,3.935,0,0,0,.311-.9,5.357,5.357,0,0,0,.1-1.121v-6.312a.754.754,0,0,1,.087-.325.41.41,0,0,1,.186-.224Z" transform="translate(-73.886 -34.956)" fill="#fafafa"/>
        <path id="Path_34720" data-name="Path 34720" d="M193.719,272.24a.373.373,0,0,0-.062-.236.29.29,0,0,0-.236-.078,1.88,1.88,0,0,0-.46,0l-.721.123a1.62,1.62,0,0,1-.708,0,.855.855,0,0,1-.447-.3,1.506,1.506,0,0,1-.236-.594,4.582,4.582,0,0,1,0-1.816,4.725,4.725,0,0,1,.4-1,4.8,4.8,0,0,1,.621-.9,3.05,3.05,0,0,1,.845-.661,2.306,2.306,0,0,1,.857-.269,1.137,1.137,0,0,1,.634.123.966.966,0,0,1,.41.426,1.637,1.637,0,0,1,.162.662.505.505,0,0,1-.075.325.41.41,0,0,1-.186.224l-.745.392a.245.245,0,0,1-.224,0l-.162-.112a.436.436,0,0,0-.224-.078,1.091,1.091,0,0,0-.447.146,1.868,1.868,0,0,0-.509.4.914.914,0,0,0-.224.617.638.638,0,0,0,0,.258.293.293,0,0,0,.211.112,1.374,1.374,0,0,0,.41,0l.7-.112a1.258,1.258,0,0,1,1.242.292,2.173,2.173,0,0,1,.36,1.379,3.579,3.579,0,0,1-.149.987,4.509,4.509,0,0,1-.422,1.009,4.258,4.258,0,0,1-.683.919,3.458,3.458,0,0,1-.907.684,2.174,2.174,0,0,1-.907.28,1.208,1.208,0,0,1-.658-.168,1.057,1.057,0,0,1-.422-.482,1.541,1.541,0,0,1-.149-.673.556.556,0,0,1,.075-.336.41.41,0,0,1,.186-.224l.745-.392c.1,0,.174-.056.224,0l.162.157a.39.39,0,0,0,.261.112.853.853,0,0,0,.485-.146,2.293,2.293,0,0,0,.6-.437,1.378,1.378,0,0,0,.211-.3A.65.65,0,0,0,193.719,272.24Z" transform="translate(-72.503 -34.92)" fill="#fafafa"/>
        <path id="Path_34721" data-name="Path 34721" d="M195.15,269.522a9.057,9.057,0,0,1,.161-1.738,7.736,7.736,0,0,1,.484-1.581,5.219,5.219,0,0,1,.745-1.289,3.086,3.086,0,0,1,.994-.841,1.473,1.473,0,0,1,.981-.191,1.253,1.253,0,0,1,.745.46,2.671,2.671,0,0,1,.484,1.009,5.675,5.675,0,0,1,.174,1.435v.7a.62.62,0,0,1-.087.336.411.411,0,0,1-.186.224l-3.23,1.693a1.59,1.59,0,0,0,.087.583.732.732,0,0,0,.248.325.561.561,0,0,0,.36.1,1.092,1.092,0,0,0,.422-.135,1.783,1.783,0,0,0,.5-.359,2.059,2.059,0,0,0,.323-.426,2.925,2.925,0,0,1,.174-.258.777.777,0,0,1,.186-.146l.77-.4a.162.162,0,0,1,.186,0,.292.292,0,0,1,.075.258,1.984,1.984,0,0,1-.149.639,4.625,4.625,0,0,1-.422.9,5.162,5.162,0,0,1-.7.919,3.653,3.653,0,0,1-.944.729,1.632,1.632,0,0,1-.994.213,1.249,1.249,0,0,1-.745-.471,2.807,2.807,0,0,1-.484-1.121A6.9,6.9,0,0,1,195.15,269.522Zm2.385-3.577a1.42,1.42,0,0,0-.484.381,2.116,2.116,0,0,0-.335.516,3.555,3.555,0,0,0-.211.572,3.339,3.339,0,0,0-.087.538l2.186-1.121a2.96,2.96,0,0,0-.075-.46.7.7,0,0,0-.174-.37.481.481,0,0,0-.323-.179A.805.805,0,0,0,197.535,265.945Z" transform="translate(-71.4 -35.24)" fill="#fafafa"/>
        <path id="Path_34722" data-name="Path 34722" d="M202.591,263.172a1.883,1.883,0,0,0-.845.852,3.518,3.518,0,0,0-.261,1.48v4.048a.75.75,0,0,1-.075.336.41.41,0,0,1-.186.224l-.733.381a.133.133,0,0,1-.186,0,.384.384,0,0,1-.075-.258v-7.254a.822.822,0,0,1,.075-.336.467.467,0,0,1,.186-.224l.733-.381a.148.148,0,0,1,.186,0,.334.334,0,0,1,.075.247v.359a4.532,4.532,0,0,1,.547-.852,2.2,2.2,0,0,1,.745-.594l.447-.235a.134.134,0,0,1,.174,0,.387.387,0,0,1,.087.258v1.02a.754.754,0,0,1-.087.336.463.463,0,0,1-.174.224Z" transform="translate(-70.17 -35.596)" fill="#fafafa"/>
        <path id="Path_34723" data-name="Path 34723" d="M210.47,263.224a.133.133,0,0,1,.186,0,.385.385,0,0,1,.075.258V264.6a.822.822,0,0,1-.075.336.6.6,0,0,1-.186.213l-4.249,2.242a.148.148,0,0,1-.186,0,.354.354,0,0,1-.074-.247V257.058a.821.821,0,0,1,.074-.336.436.436,0,0,1,.186-.213l.783-.415a.148.148,0,0,1,.186,0,.354.354,0,0,1,.075.247v8.532Z" transform="translate(-68.782 -36.186)" fill="#fafafa"/>
        <path id="Path_34724" data-name="Path 34724" d="M213.135,255.076a1.613,1.613,0,0,1,.957-.235,1.193,1.193,0,0,1,.758.336,2.1,2.1,0,0,1,.5.83,4.374,4.374,0,0,1,.224,1.222v1.581a7.132,7.132,0,0,1-.224,1.446,6.557,6.557,0,0,1-.5,1.345,4.941,4.941,0,0,1-.758,1.121,3.337,3.337,0,0,1-.957.774,1.762,1.762,0,0,1-.969.235,1.178,1.178,0,0,1-.745-.336,1.86,1.86,0,0,1-.5-.819,4.376,4.376,0,0,1-.224-1.222v-1.57a6.466,6.466,0,0,1,.211-1.458,6.943,6.943,0,0,1,.509-1.357,5.339,5.339,0,0,1,.745-1.121A3.223,3.223,0,0,1,213.135,255.076Zm1.168,2.893a2.045,2.045,0,0,0-.137-.729.7.7,0,0,0-.273-.359.58.58,0,0,0-.36-.078,1.149,1.149,0,0,0-.4.146,1.75,1.75,0,0,0-.4.269,2.033,2.033,0,0,0-.36.448,2.314,2.314,0,0,0-.273.65,4.082,4.082,0,0,0-.149.875v1.4a2.418,2.418,0,0,0,.149.729.687.687,0,0,0,.273.359.5.5,0,0,0,.36.067,1.2,1.2,0,0,0,.4-.135,2.073,2.073,0,0,0,.4-.269,2.46,2.46,0,0,0,.36-.449,2.747,2.747,0,0,0,.273-.65,3.638,3.638,0,0,0,.137-.874,2.2,2.2,0,0,0,0-.314v-.785A2.136,2.136,0,0,0,214.3,257.969Z" transform="translate(-67.633 -36.334)" fill="#fafafa"/>
        <path id="Path_34725" data-name="Path 34725" d="M218.152,262.071a1.729,1.729,0,0,0,.422-.325,2.748,2.748,0,0,0,.385-.516,3.248,3.248,0,0,0,.286-.706,3.052,3.052,0,0,0,.112-.841v-.572c0,.112-.124.247-.211.4a3.294,3.294,0,0,1-.3.471,4.643,4.643,0,0,1-.422.448,2.177,2.177,0,0,1-.534.37,1.128,1.128,0,0,1-1.553-.3,2.9,2.9,0,0,1-.435-.942,5.852,5.852,0,0,1-.174-1.289q0-.219,0-.538v-.549a8.585,8.585,0,0,1,.174-1.469,8.19,8.19,0,0,1,.435-1.4,5.459,5.459,0,0,1,.671-1.121,2.729,2.729,0,0,1,.882-.762,1.866,1.866,0,0,1,.534-.191,1.278,1.278,0,0,1,.422,0,.8.8,0,0,1,.3.146,1.084,1.084,0,0,1,.211.191v-.359a.822.822,0,0,1,.075-.336.436.436,0,0,1,.186-.213l.733-.392a.148.148,0,0,1,.186,0,.387.387,0,0,1,.087.258v7.288a7.038,7.038,0,0,1-.658,3.184,4.219,4.219,0,0,1-1.814,1.906,2.062,2.062,0,0,1-.919.258A1.348,1.348,0,0,1,216.5,264a1.562,1.562,0,0,1-.5-.538,2.06,2.06,0,0,1-.2-.807.556.556,0,0,1,.075-.336.411.411,0,0,1,.186-.224l.658-.336a.174.174,0,0,1,.236,0,1.141,1.141,0,0,1,.162.191.578.578,0,0,0,.348.247C217.618,262.3,217.842,262.183,218.152,262.071Zm-1.168-5.438v.875a1.775,1.775,0,0,0,.4,1.256.659.659,0,0,0,.795,0,1.99,1.99,0,0,0,.807-.875,3.732,3.732,0,0,0,.373-1.48q0-.252,0-.605v-.583a1.6,1.6,0,0,0-.373-1.121.645.645,0,0,0-.807,0,2,2,0,0,0-.8.863A3.942,3.942,0,0,0,216.985,256.633Z" transform="translate(-66.414 -36.77)" fill="#fafafa"/>
        <path id="Path_34726" data-name="Path 34726" d="M222.216,247.173a.148.148,0,0,1,.174,0,.335.335,0,0,1,.087.258v1.222a.681.681,0,0,1-.087.336.489.489,0,0,1-.174.213l-.832.437a.133.133,0,0,1-.186,0,.3.3,0,0,1-.087-.247v-1.222a.681.681,0,0,1,.087-.336.436.436,0,0,1,.186-.213Zm.211,10.528a.741.741,0,0,1-.075.325.558.558,0,0,1-.186.224l-.745.381a.12.12,0,0,1-.174,0,.335.335,0,0,1-.087-.258V251.12a.682.682,0,0,1,.087-.336.531.531,0,0,1,.174-.224l.745-.381a.148.148,0,0,1,.186,0,.354.354,0,0,1,.075.247Z" transform="translate(-65.111 -37.267)" fill="#fafafa"/>
        <path id="Path_34727" data-name="Path 34727" d="M228.353,254.261a.822.822,0,0,1-.074.336.437.437,0,0,1-.186.213l-.745.392a.134.134,0,0,1-.174,0,.335.335,0,0,1-.087-.258V251a2.515,2.515,0,0,0-.273-1.357c-.174-.28-.447-.325-.832-.123a1.869,1.869,0,0,0-.807.975,4.3,4.3,0,0,0-.3,1.648V256.1a.821.821,0,0,1-.075.336.411.411,0,0,1-.186.224l-.733.381a.133.133,0,0,1-.186,0,.333.333,0,0,1-.074-.247v-7.254a.75.75,0,0,1,.075-.336.411.411,0,0,1,.186-.224l.733-.381a.133.133,0,0,1,.186,0,.385.385,0,0,1,.075.258v.348a5.634,5.634,0,0,1,.6-.975,2.257,2.257,0,0,1,.807-.684,1.466,1.466,0,0,1,.981-.224,1,1,0,0,1,.646.46,2.657,2.657,0,0,1,.348.975,9.121,9.121,0,0,1,.1,1.345Z" transform="translate(-64.503 -37.247)" fill="#fafafa"/>
        <path id="Path_34728" data-name="Path 34728" d="M280.319,227.18l-12.062,6.279,1.876-15.271c-1.453-.7-2.373-2.388-2.373-4.821,0-4.339,2.932-9.373,6.534-11.212s6.522.112,6.522,4.485a13.822,13.822,0,0,1-2.36,7.288Z" transform="translate(-53.809 -42.803)" fill="#455a64"/>
        <path id="Path_34729" data-name="Path 34729" d="M280.235,225l-10.621-5.528-1.453,11.817Z" transform="translate(-53.712 -40.621)" fill="#37474f"/>
        <path id="Path_34730" data-name="Path 34730" d="M274.085,202.126a13.061,13.061,0,0,0-5.565,6.671l9.727,5.068h0a13.823,13.823,0,0,0,2.36-7.288C280.632,202.238,277.713,200.254,274.085,202.126Z" transform="translate(-53.625 -42.808)" fill="#37474f"/>
        <path id="Path_34731" data-name="Path 34731" d="M233.4,156.849c-4.137-2.153-9.839-1.85-16.15,1.435-12.6,6.57-22.808,22.525-22.808,35.654,0,6.593,2.584,11.212,6.733,13.342l8.037,4.216c4.124,2.153,9.826,1.839,16.15-1.446,12.6-6.559,22.808-22.525,22.808-35.654,0-6.559-2.559-11.212-6.683-13.309" transform="translate(-71.572 -48.377)" fill="#57bb72"/>
        <path id="Path_34732" data-name="Path 34732" d="M223.768,162.054c-12.6,6.57-22.808,22.536-22.808,35.654s10.211,18.455,22.808,11.885,22.82-22.525,22.808-35.654S236.352,155.495,223.768,162.054Z" transform="translate(-69.993 -47.921)" fill="#57bb72"/>
        <path id="Path_34733" data-name="Path 34733" d="M234.361,188.548v1.5a34.866,34.866,0,0,1-12.584,11.907c-4.907,2.545-9.342,2.825-12.6,1.2v-3.095a19.892,19.892,0,0,1,10.261-16.044l3.317-1.727c2.932-1.525,5.789-1.727,8.025-.549S234.361,185.4,234.361,188.548Z" transform="translate(-68.001 -45.286)" fill="#57bb72"/>
        <path id="Path_34734" data-name="Path 34734" d="M232.751,156.848l8.075,4.238c-4.124-2.164-9.826-1.861-16.149,1.424-8.249,4.305-15.479,12.636-19.479,21.561l-8.087-4.227c4.013-8.97,11.18-17.255,19.479-21.561C222.924,155.009,228.626,154.7,232.751,156.848Z" transform="translate(-70.925 -48.377)" fill="#fff" opacity="0.4"/>
        <path id="Path_34735" data-name="Path 34735" d="M208.922,207.17l-7.739-4.048c-4.149-2.13-6.733-6.727-6.733-13.342l8.087,4.238C202.587,200.409,204.972,204.961,208.922,207.17Z" transform="translate(-71.57 -44.219)" opacity="0.2"/>
        <path id="Path_34736" data-name="Path 34736" d="M197.77,177.21l8.087,4.227a35.079,35.079,0,0,0-3.28,14.094h0l-8.087-4.238a35.2,35.2,0,0,1,3.28-14.082Z" transform="translate(-71.56 -45.743)" opacity="0.1"/>
        <path id="Path_34737" data-name="Path 34737" d="M217.9,183.265a4.494,4.494,0,0,1-4.572-5,12.62,12.62,0,0,1,6.51-10.18h0a5.3,5.3,0,0,1,5.479-.369,4.268,4.268,0,0,1,2.373,4.472,12.642,12.642,0,0,1-6.51,10.181,7.091,7.091,0,0,1-3.28.9Z" transform="translate(-67.003 -46.965)" fill="#fff"/>
        <path id="Path_34738" data-name="Path 34738" d="M230.783,181.732c-2.236-1.177-5.093-.975-8.025.549l-3.317,1.727a19.89,19.89,0,0,0-10.261,16.056v3.106c3.255,1.626,7.69,1.345,12.6-1.2a34.867,34.867,0,0,0,12.584-11.907v-1.5C234.361,185.4,233.069,182.92,230.783,181.732Z" transform="translate(-68.001 -45.287)" fill="#fff"/>
      </g>
    </g>
    <g id="freepik--Plants--inject-35" transform="translate(520.151 324.57)">
      <g id="freepik--plants--inject-35-2" data-name="freepik--plants--inject-35">
        <path id="Path_34739" data-name="Path 34739" d="M432.15,359.025s1.652-13.1,8.87-23.265,17.131-16.5,26.386-17.166,16.733,7.03,6.832,12.333-27.491,10.663-35.591,30.4Z" transform="translate(-432.15 -318.554)" fill="#57bb72"/>
        <path id="Path_34740" data-name="Path 34740" d="M432.15,359.025s1.652-13.1,8.87-23.265,17.131-16.5,26.386-17.166,16.733,7.03,6.832,12.333-27.491,10.663-35.591,30.4Z" transform="translate(-432.15 -318.554)" opacity="0.1"/>
        <path id="Path_34741" data-name="Path 34741" d="M434.42,355.189h-.1a.435.435,0,0,1-.273-.583c9.764-21.7,28.349-30.766,36.821-32.515a.5.5,0,0,1,.6.336.45.45,0,0,1-.373.538c-8.3,1.727-26.523,10.629-36.125,31.988a.5.5,0,0,1-.547.235Z" transform="translate(-431.699 -318.127)" fill="#fff"/>
        <path id="Path_34742" data-name="Path 34742" d="M483.6,353.057c-.832,1.7-2.894,2.6-4.808,3.3s-4,1.446-5.044,3.061c-2.087,3.251,1.342,7.848-.894,11a6.685,6.685,0,0,1-4.422,2.31c-1.429.235-2.882.235-4.323.348a17.614,17.614,0,0,1-2.062-.146,10.338,10.338,0,0,0-5.975.572c-2.87,1.458-3.727,4.72-5.491,7.243a13.9,13.9,0,0,1-9.652,5.471c-1.242.146-3.727.359-4.969-.3a1.491,1.491,0,0,1-.273-.157h0a7.366,7.366,0,0,1-.509-.538.163.163,0,0,1,0-.078c-.509-1.693.323-3.442.36-5.191v-.314c-.087-2.029-.149-4.048-.2-6.066q-.161-5.606-.124-11.212c0-2.422-.3-5.068.845-7.344,1.242-2.512,4.373-2.568,5.553-5.023.472-.987.72-2.029,1.18-3.027a9.627,9.627,0,0,1,8.174-5.146c5.454-.247,10.336,3.734,15.789,3.364,1.4-.1,2.783-.493,4.174-.718,4.41-.751,9.516.381,12,3.756A4.75,4.75,0,0,1,483.6,353.057Z" transform="translate(-431.458 -315.737)" fill="#57bb72"/>
        <path id="Path_34743" data-name="Path 34743" d="M434.766,376.684h0a.422.422,0,0,1-.323-.516c7.528-25.5,37.268-29.151,44.262-28.725a.481.481,0,0,1,.323.141.389.389,0,0,1,.112.307.46.46,0,0,1-.5.381c-6.82-.437-35.939,3.162-43.305,28.12a.481.481,0,0,1-.571.292Z" transform="translate(-431.598 -315.057)" fill="#fff"/>
        <path id="Path_34744" data-name="Path 34744" d="M465.433,362.693a.454.454,0,0,1-.248-.112,26.623,26.623,0,0,0-20.262-5.146.479.479,0,0,1-.522-.359.433.433,0,0,1,.385-.482,27.7,27.7,0,0,1,21.119,5.393.387.387,0,0,1,0,.594A.453.453,0,0,1,465.433,362.693Z" transform="translate(-429.183 -313.982)" fill="#fff"/>
      </g>
    </g>
    <g id="freepik--Clouds--inject-35" transform="translate(446.67 44.437)">
      <g id="freepik--clouds--inject-35-2" data-name="freepik--clouds--inject-35">
        <path id="Path_34745" data-name="Path 34745" d="M378.118,81.369l3.95,1.368V74.889c0-6.234,5.5-7.725,11.479-4.608h0C399.535,73.4,404.38,80.965,404.38,87.2v1.121a6.3,6.3,0,0,1,4.969.7h0a15.313,15.313,0,0,1,7.789,12.187v.516l5.516,2.87a10.1,10.1,0,0,1,5.131,8.017c0,2.96-2.3,4.16-5.131,2.68l-44.535-23.22A10.042,10.042,0,0,1,373,84.049C373,81.1,375.273,79.9,378.118,81.369Z" transform="translate(-373 -68.704)" fill="#e6e6e6"/>
        <path id="Path_34746" data-name="Path 34746" d="M420.338,74.841l7.168,3.734a6.558,6.558,0,0,1-.062-.852V75.851c0-3.364,2.584-4.687,5.789-3.016a10.769,10.769,0,0,1,3.454,2.994c.522-4.193,4.174-5.752,8.6-3.453a17.077,17.077,0,0,1,8.7,13.555v2.8a6.777,6.777,0,0,1-.733,3.252l5.963,3.095a6.333,6.333,0,0,1,3.18,5.034c0,1.85-1.441,2.6-3.217,1.682L420.338,81.614a6.318,6.318,0,0,1-3.217-5.045C417.12,74.673,418.561,73.922,420.338,74.841Z" transform="translate(-362.311 -68.388)" fill="#e6e6e6"/>
      </g>
    </g>
    <g id="freepik--Character--inject-35" transform="translate(358.73 163.657)">
      <g id="freepik--character--inject-35-2" data-name="freepik--character--inject-35" transform="translate(0 0)">
        <path id="Path_34747" data-name="Path 34747" d="M410.312,227.686c-5.218,7.961-10.236,14.878-13.764,18.2-6.7,2.8-22.423,7.131-28.572,7.848a4.925,4.925,0,0,1-3.081-.65c-2.422-1.435-4.3-1.671-6.845-2.467-2-.617-2.845-1.48-3.217-1.121a1.914,1.914,0,0,0,.211,2.859,16.781,16.781,0,0,0,3.155,2.13,20.6,20.6,0,0,1-8.323.135c-5.329-1.267-7.839,1.043-4.236,6.268,1.242,1.861,6.36,4.855,16.646,4.048a102.834,102.834,0,0,0,10.944-1.121c9.864-1.906,20.833-3.745,27.578-5.606a17.536,17.536,0,0,0,6.559-4.1c11.342-11.672,15.106-19.991,20.075-27.548l-.422-12.333C418.971,213.974,414.672,221.026,410.312,227.686Z" transform="translate(-292.098 -170.288)" fill="#ffa8a7"/>
        <path id="Path_34748" data-name="Path 34748" d="M417.308,214.012a13.578,13.578,0,0,0-12.3,4.743c-5.516,6.38-15.28,21.7-15.28,21.7a15.945,15.945,0,0,0,11.814,8.97L415.4,232.535S421.954,220.807,417.308,214.012Z" transform="translate(-281.007 -170.326)" fill="#455a64"/>
        <rect id="Rectangle_1425" data-name="Rectangle 1425" width="9.031" height="14.531" transform="translate(157.222 215.836)" fill="#ffa8a7"/>
        <path id="Path_34749" data-name="Path 34749" d="M412.689,368.513l-9.019.292-.46-15.383,9.479-.292Z" transform="translate(-277.741 -153.451)" fill="#ffa8a7"/>
        <path id="Path_34750" data-name="Path 34750" d="M446.359,255.357c0,8.1-1.317,73.315-1.317,73.315.2,2.332,2.485,6.638,2.025,15.6-.683,12.165-1.59,44.142-1.59,44.142a12.6,12.6,0,0,1-10.05.179s-7.329-44.848-8.944-56.856c-1.416-10.528-5.044-45.375-5.044-45.375l-4.882,41.193a45.9,45.9,0,0,1,1.118,13.454c-.422,5.606-3.329,34.623-3.329,34.623a13.081,13.081,0,0,1-10.423.751s-5.143-43.727-5.242-48.862c-.124-5.83,3.006-72.228,3.006-72.228Z" transform="translate(-278.839 -165.309)" fill="#37474f"/>
        <path id="Path_34751" data-name="Path 34751" d="M431.555,376.9v-1.211c-.87.348-2.87,7.546-6.46,10.618-2.845,2.444-6.721,5.258-7.715,7.983s5.4,4.4,8.075,3.958c3.081-.516,8.447-2.568,9.789-4.485s1.975-4.7,3.068-6.088,3.615-2.937,4.2-4.552a9.793,9.793,0,0,0-.509-4.485c-.422-1.5-.87-3.151-1.416-3v.919a7.491,7.491,0,0,1-4.522,1.435C434.747,378.086,431.542,377.84,431.555,376.9Z" transform="translate(-274.333 -150.725)" fill="#263238"/>
        <path id="Path_34752" data-name="Path 34752" d="M407.688,364.834c-.472,0-.857.639-1.888,1.693a19.845,19.845,0,0,1-5.3,3.588c-3.379,1.592-9.938,4.036-12.932,5.3-1.863.785-1.776,2.893.149,4.092s6.559,2.063,12.125.9c3.031-.639,6.982-3.274,9.491-3.128s7.168.1,9.019-1.121,1.106-3.756.584-5.942c-.571-2.4-1.242-6.133-2.124-5.965v.841c-1.081,1.547-6.683,2.175-9.069,1.043Z" transform="translate(-281.858 -152.104)" fill="#263238"/>
        <path id="Path_34753" data-name="Path 34753" d="M419.452,283.733a34.074,34.074,0,0,1-12.572-6.783s2.485,4.272,9.64,8.252l-1.54,36.787Z" transform="translate(-276.852 -162.684)" fill="#263238"/>
        <path id="Path_34754" data-name="Path 34754" d="M440.954,215.191s7.454,1.547,6.919,13.7l-1.553,19.341v29.039c-6.634,6.794-36.026,6.3-46.15-.538,0,0,1.143-34.365,1.826-47.6.484-9.4,2.882-14.127,13.118-15.159l12.584.493Z" transform="translate(-278.477 -170.316)" fill="#57bb72"/>
        <path id="Path_34755" data-name="Path 34755" d="M430.717,193.906a11.7,11.7,0,0,1-3.808,8.839,14.4,14.4,0,0,1-9.633,3.786c-7.454,0-11.826-5.808-13.441-12.625-2.981-12.479,6.013-12.636,13.441-12.636,7.577.141,13.594,5.8,13.441,12.636Z" transform="translate(-277.732 -174.281)" fill="#263238"/>
        <path id="Path_34756" data-name="Path 34756" d="M431.929,197.09s-2.062,9.1-2.894,10.607a4.292,4.292,0,0,1-2.485,1.917l.149-6.4Z" transform="translate(-272.086 -172.364)" fill="#263238"/>
        <path id="Path_34757" data-name="Path 34757" d="M429.042,185.462s1.478-.336,3.056,1.884c1.342,1.895,1.652,6.155-.46,11.212l-3.888.426Z" transform="translate(-271.796 -173.775)" fill="#263238"/>
        <path id="Path_34758" data-name="Path 34758" d="M429.94,187.344l4.77.078a1.9,1.9,0,0,0-.544-1.55,2.353,2.353,0,0,0-1.63-.692,2.553,2.553,0,0,0-2.6,2.164Z" transform="translate(-271.265 -173.807)" fill="#263238"/>
        <path id="Path_34759" data-name="Path 34759" d="M430.527,186.609l3.528-3.061a2.372,2.372,0,0,0-1.641-.723,2.412,2.412,0,0,0-1.7.6A2.191,2.191,0,0,0,430.527,186.609Z" transform="translate(-271.268 -174.093)" fill="#263238"/>
        <path id="Path_34760" data-name="Path 34760" d="M432.211,199.532c.783.437,1.888-.964,2.857-1.917a3.476,3.476,0,0,1,5.541,1.267c1.565,3.095-1.106,6.155-3.342,7.165-4.013,1.794-5.28-.818-5.28-.818l-.335,14.419c-5.64,7.848-18.435,7.6-13.826-.381v-4.384a28.235,28.235,0,0,1-5.739.269c-3.131-.448-5.093-2.769-6.05-5.954-1.516-5.113-2.1-9.239-.807-19.3,1.416-11.01,15.056-11.134,22.361-6.727S432.211,199.532,432.211,199.532Z" transform="translate(-277.424 -174.379)" fill="#ffa8a7"/>
        <path id="Path_34761" data-name="Path 34761" d="M415.993,188.842c3.255-.292,6.472-.9,9.739-1.121a7.006,7.006,0,0,1,2.112.09c2.485.617,2.186,3.24,2.584,5.068.683,3.162,1.242,8.51,2.559,8.532.4,0,1.888-2.321,2.857-3.151a4.331,4.331,0,0,0,.87-2.411,38.328,38.328,0,0,0,.484-3.958c.1-1.121.224-2.242.224-3.364a14.289,14.289,0,0,0-.335-3.778,6.455,6.455,0,0,0-1.739-2.825l-.248-.247a16.684,16.684,0,0,0-5.826-3.543,38.468,38.468,0,0,0-9.864-1.94q-5.054-.323-10.05-1.121a1.152,1.152,0,0,0-.584,0,.827.827,0,0,0-.472.673,3.587,3.587,0,0,0,1.677,3.7c-2.249.157-4.832-.9-6.994-1.435a1.557,1.557,0,0,0-1.106,0,.991.991,0,0,0-.435.572,3.228,3.228,0,0,0-.062,1.615,8.782,8.782,0,0,0,1.938,4.485,12.3,12.3,0,0,0,6.708,3.958A21.66,21.66,0,0,0,415.993,188.842Z" transform="translate(-278.201 -175.036)" fill="#263238"/>
        <path id="Path_34762" data-name="Path 34762" d="M415.24,211.775s6.982-1.323,9.416-2.545a7.837,7.837,0,0,0,3.379-3.139,10.062,10.062,0,0,1-1.925,3.7c-1.776,2.153-10.87,3.722-10.87,3.722Z" transform="translate(-274.826 -171.273)" fill="#f28f8f"/>
        <path id="Path_34763" data-name="Path 34763" d="M416.59,196.149a1.375,1.375,0,0,0,1.391,1.357,1.551,1.551,0,0,0,1.487-.765,1.267,1.267,0,0,0-.25-1.528,1.631,1.631,0,0,0-1.669-.343,1.377,1.377,0,0,0-.959,1.279Z" transform="translate(-274.499 -172.644)" fill="#263238"/>
        <path id="Path_34764" data-name="Path 34764" d="M418.39,191.244l2.994,1.558a1.626,1.626,0,0,0-.7-2.242,1.8,1.8,0,0,0-1.316-.115A1.593,1.593,0,0,0,418.39,191.244Z" transform="translate(-274.063 -173.178)" fill="#263238"/>
        <path id="Path_34765" data-name="Path 34765" d="M416.363,204.11l-3.193,1.121a1.551,1.551,0,0,0,.85.919,1.829,1.829,0,0,0,1.324.067,1.631,1.631,0,0,0,1.019-2.108Z" transform="translate(-275.328 -171.513)" fill="#f28f8f"/>
        <path id="Path_34766" data-name="Path 34766" d="M406.314,192.466l2.733-1.973a1.635,1.635,0,0,0-1.1-.652,1.744,1.744,0,0,0-1.272.3A1.643,1.643,0,0,0,406.314,192.466Z" transform="translate(-277.068 -173.244)" fill="#263238"/>
        <path id="Path_34767" data-name="Path 34767" d="M407.22,195.818a1.363,1.363,0,0,0,1.472,1.164,1.328,1.328,0,0,0,1.33-1.3,1.344,1.344,0,0,0-1.4-1.236,1.526,1.526,0,0,0-1.018.42,1.24,1.24,0,0,0-.386.948Z" transform="translate(-276.77 -172.683)" fill="#263238"/>
        <path id="Path_34768" data-name="Path 34768" d="M414.26,194.73,414.1,202.7l-5.019-1.032Z" transform="translate(-276.319 -172.65)" fill="#f28f8f"/>
        <path id="Path_34769" data-name="Path 34769" d="M317.31,255.084l7.789-4.059,3.081-3.375-7.777,4.059-3.093,3.375" transform="translate(-298.552 -166.235)" fill="#57bb72"/>
        <path id="Path_34770" data-name="Path 34770" d="M317.31,255.084l7.789-4.059,3.081-3.375-7.777,4.059-3.093,3.375" transform="translate(-298.552 -166.235)" opacity="0.4"/>
        <path id="Path_34771" data-name="Path 34771" d="M334.36,265.12l7.789-4.059,6.5-5.191-7.777,4.048-6.51,5.2" transform="translate(-294.421 -165.239)" fill="#57bb72"/>
        <path id="Path_34772" data-name="Path 34772" d="M334.36,265.12l7.789-4.059,6.5-5.191-7.777,4.048-6.51,5.2" transform="translate(-294.421 -165.239)" opacity="0.4"/>
        <path id="Path_34773" data-name="Path 34773" d="M408.3,283.229a14.073,14.073,0,0,1,3.218,7.647A14.221,14.221,0,0,1,408.3,283.229Zm18.1.213c-2.621-16.089-12.2-32-23.6-37.953-5.478-2.859-10.547-2.96-14.609-.818l-7.329,3.812-.41.224a9.493,9.493,0,0,0-.944.538,12.534,12.534,0,0,0-1.69,1.256l-.248.213c-.224.2-.46.437-.671.661s-.534.572-.783.875a16.563,16.563,0,0,0-1.429,1.973,11.235,11.235,0,0,0-.634,1.121L310.037,222l-7.777,4.048v4.485l.658.336.621.325v.9l-1.242.661v2.6l9.4,17.939,9.292,4.855,3.093-3.364,8.2,4.429,4.708,7.277,5.193,2.7,6.5-5.2,7.975,4.16,2.683,9.99,13.4,7a61.065,61.065,0,0,0,2.485,7.5c.087.247.2.5.311.785,4.447,10.539,11.516,19.565,19.491,23.725a20.968,20.968,0,0,0,2.994,1.312,16.819,16.819,0,0,0,1.677.5q.745.179,1.491.3a14.638,14.638,0,0,0,4.745,0l.646-.146a6.309,6.309,0,0,0,.907-.235l.7-.247a4.288,4.288,0,0,0,.708-.3,7.064,7.064,0,0,0,.671-.3l.323-.179a.541.541,0,0,0,.161-.079c1.776-.919,6.149-3.207,7.342-3.812,5.913-3.095,9.739-10.921,9.739-21.987a52.2,52.2,0,0,0-.733-8.532Z" transform="translate(-302.198 -169.344)" fill="#57bb72"/>
        <path id="Path_34774" data-name="Path 34774" d="M406.029,296.369c-3.081-1.6-5.565-6.357-5.565-10.618s2.485-6.424,5.565-4.832,5.553,6.357,5.553,10.629S409.1,297.972,406.029,296.369Zm12.584-9.317c-2.609-16.078-12.187-32-23.6-37.941-5.292-2.758-10.187-2.96-14.162-1.065l-.41.224a9.5,9.5,0,0,0-.944.538,12.54,12.54,0,0,0-1.689,1.256l-.248.213c-.224.2-.46.437-.671.662s-.534.572-.783.875a16.567,16.567,0,0,0-1.429,1.973,11.248,11.248,0,0,0-.634,1.121,25.465,25.465,0,0,0-2.485,6.828L302.25,225.61v4.485l.658.336.621.325v.9l-1.242.661v2.6l9.4,17.939,9.292,4.855,3.093-3.364,8.2,4.429,4.708,7.277,5.193,2.7,6.5-5.2,7.975,4.16,2.683,9.99,13.416,7a61.07,61.07,0,0,0,2.485,7.5c.087.247.2.5.311.785,4.447,10.539,11.516,19.565,19.491,23.725a20.972,20.972,0,0,0,2.994,1.312,16.817,16.817,0,0,0,1.677.5q.745.179,1.491.3a14.636,14.636,0,0,0,4.745,0l.646-.146a6.31,6.31,0,0,0,.907-.235l.7-.247a4.293,4.293,0,0,0,.708-.3,7.064,7.064,0,0,0,.671-.3l.323-.179a.543.543,0,0,0,.161-.079c5.665-3.229,9.3-10.943,9.3-21.74A53.9,53.9,0,0,0,418.613,287.052Z" transform="translate(-302.2 -168.907)" fill="#57bb72"/>
        <path id="Path_34775" data-name="Path 34775" d="M392.428,285.615c0,4.272-2.485,6.436-5.553,4.832s-5.565-6.346-5.565-10.618,2.485-6.436,5.565-4.832a7.687,7.687,0,0,1,2.273,1.884,14.167,14.167,0,0,0,3.217,7.647,8,8,0,0,1,.062,1.088Z" transform="translate(-283.046 -162.985)" opacity="0.4"/>
        <path id="Path_34776" data-name="Path 34776" d="M411.782,289.673c0,11.066-3.826,18.892-9.739,21.987-1.242.605-5.565,2.893-7.342,3.812,5.665-3.229,9.3-10.943,9.3-21.74a53.886,53.886,0,0,0-.72-8.532c-2.609-16.078-12.187-32-23.6-37.942-5.292-2.758-10.187-2.96-14.162-1.065l7.329-3.812c4.062-2.141,9.131-2.041,14.609.818,11.416,5.954,20.994,21.863,23.6,37.953a52.2,52.2,0,0,1,.72,8.521Z" transform="translate(-286.872 -167.054)" fill="grey" opacity="0.4"/>
        <path id="Path_34777" data-name="Path 34777" d="M398.315,288.572c0,10.8-3.64,18.511-9.3,21.74,1.776-.919,6.149-3.207,7.342-3.812,5.913-3.095,9.739-10.921,9.739-21.987V283.28l-7.777,4.059C398.3,287.776,398.315,288.18,398.315,288.572Z" transform="translate(-281.181 -161.917)" fill="#57bb72"/>
        <path id="Path_34778" data-name="Path 34778" d="M398.315,288.572c0,10.8-3.64,18.511-9.3,21.74,1.776-.919,6.149-3.207,7.342-3.812,5.913-3.095,9.739-10.921,9.739-21.987V283.28l-7.777,4.059C398.3,287.776,398.315,288.18,398.315,288.572Z" transform="translate(-281.181 -161.917)" opacity="0.1"/>
        <path id="Path_34779" data-name="Path 34779" d="M371.852,265.768v2.276l-69.592-36.26,1.28-.673v-.942Z" transform="translate(-302.198 -168.354)" opacity="0.15"/>
        <path id="Path_34780" data-name="Path 34780" d="M371.852,266.609v1.334l-69.592-36.26,1.28-.673V231Z" transform="translate(-302.198 -168.254)" opacity="0.15"/>
        <path id="Path_34781" data-name="Path 34781" d="M388.106,310.625a16.1,16.1,0,0,1-7.454-2.007c-11.342-5.909-20.572-23.489-20.572-39.186,0-9.16,3.068-16,8.423-18.791,3.727-1.951,8.137-1.7,12.771.706,11.329,5.909,20.56,23.545,20.56,39.242,0,9.149-3.068,16-8.423,18.78a11.471,11.471,0,0,1-5.3,1.256Zm-14.224-60.153a10.19,10.19,0,0,0-4.721,1.121c-4.882,2.545-7.8,9.216-7.8,17.827,0,15.338,8.944,32.515,19.951,38.211,4.211,2.242,8.2,2.444,11.516.718,4.882-2.545,7.8-9.205,7.8-17.816,0-15.349-8.944-32.515-19.938-38.222a14.769,14.769,0,0,0-6.808-1.794Z" transform="translate(-288.19 -166.031)" opacity="0.15"/>
        <path id="Path_34782" data-name="Path 34782" d="M374,255.325a25.464,25.464,0,0,0-2.485,6.828L302.21,226.028l7.777-4.048Z" transform="translate(-302.21 -169.347)" fill="#F0F0F0" opacity="0.4"/>
        <path id="Path_34783" data-name="Path 34783" d="M443.438,259.571c3.627-6.2,7.777-20.126,9.839-27.156,2.932-9.979-1.814-16.257-7.205-16.515-3.367.471-14.46,36.876-14.46,36.876-1.242.886-18.1,8.611-23.516,10.551a4.679,4.679,0,0,1-3.006,0c-2.6-.852-4.373-.7-6.919-.919-2-.179-3.006-.818-3.267-.437a1.97,1.97,0,0,0,.981,2.657A17.281,17.281,0,0,0,399.362,266a23.38,23.38,0,0,1-6.721.818c-5.218-.1-7.093,1.94-3.044,6.727,2.485,2.982,6.6,3.924,15.777,1.065,2.634-.83,6.211-2.433,9.553-3.521,6.882-2.242,8.7-2.511,13.938-4.115C436.506,264.639,441.823,262.329,443.438,259.571Z" transform="translate(-281.57 -170.084)" fill="#ffa8a7"/>
        <path id="Path_34784" data-name="Path 34784" d="M435.19,215.06c3.168.392,6.211,1.031,8.087,3.364s3.379,5.606,1.54,14.52a128.846,128.846,0,0,1-5.64,18.477s-7.379,2.848-15.218-4.373l5.391-18.814S430.221,216,435.19,215.06Z" transform="translate(-272.714 -170.185)" fill="#455a64"/>
      </g>
    </g>
  </g>
</svg>
