<svg xmlns="http://www.w3.org/2000/svg" xmlns:xlink="http://www.w3.org/1999/xlink" width="654.357" height="459" viewBox="0 0 654.357 459">
  <defs>
    <style>
      .cls-1, .cls-2 {
        fill: #57bb71;
      }

      .cls-1 {
        opacity: 0.36;
      }

      .cls-3 {
        fill: #444053;
      }

      .cls-4 {
        fill: #3f3d56;
      }

      .cls-5 {
        fill: #fff;
      }

      .cls-6 {
        fill: #fa5959;
      }

      .cls-6, .cls-7, .cls-8 {
        opacity: 0.8;
      }

      .cls-7 {
        fill: #fed253;
      }

      .cls-8 {
        fill: #8ccf4d;
      }

      .cls-10, .cls-9 {
        opacity: 0.05;
      }

      .cls-10 {
        fill: #ff3d3d;
      }

      .cls-11 {
        fill: #aae5ba;
      }

      .cls-12 {
        fill: url(#linear-gradient);
      }

      .cls-13 {
        fill: #fbbebe;
      }

      .cls-14, .cls-17 {
        opacity: 0.1;
      }

      .cls-15 {
        fill: #f79d84;
      }

      .cls-16 {
        fill: #33313f;
      }
    </style>
    <linearGradient id="linear-gradient" y1="0.5" x2="1" y2="0.5" gradientUnits="objectBoundingBox">
      <stop offset="0" stop-color="gray" stop-opacity="0.251"/>
      <stop offset="0.54" stop-color="gray" stop-opacity="0.122"/>
      <stop offset="1" stop-color="gray" stop-opacity="0.102"/>
    </linearGradient>
  </defs>
  <g id="Login_Illustration" data-name="Login Illustration" transform="translate(0 0.006)">
    <path id="Path_35391" data-name="Path 35391" class="cls-1" d="M387.032,110.072c-41.943.057-82.315-12.048-120.931-25.495S189.166,56.072,148,49.691c-26.473-4.1-56.577-3.725-77.271,11.168C50.813,75.186,45.044,98.9,42.261,120.806c-2.093,16.481-3.058,33.778,4.781,48.853,5.443,10.465,14.757,19.091,21.322,29.065,22.916,34.7,9.135,79.021-13.136,114.524-10.442,16.658-22.675,32.624-30.569,50.236s-11.132,37.583-3.081,54.966c7.979,17.229,26,29.734,45.344,38.274,39.278,17.377,85.009,21.1,129.511,22.536,98.509,3.182,197.209-3.308,295.645-9.8,36.427-2.4,73.018-4.816,108.693-11.768,19.807-3.856,40.2-9.58,54.248-22.124,17.827-15.927,21.474-41.93,8.5-60.621C641.766,343.6,584.4,337.687,568.8,303.766c-8.6-18.674-1.184-40.09,9.741-58.091,23.432-38.622,63.765-73.217,64.444-116.415.466-29.665-20.509-58.6-51.836-71.5C558.317,44.258,513.546,47.732,490.54,72.9,466.884,98.83,424.065,110.032,387.032,110.072Z" transform="translate(-16.91 -47.46)"/>
    <path id="Path_35392" data-name="Path 35392" class="cls-2" d="M998.5,690.847s-6.794-4.483-13.527-1.293c0,0,2.073,3.991,10.6,3.615Z" transform="translate(-440.127 -322.849)"/>
    <path id="Path_35393" data-name="Path 35393" class="cls-2" d="M1007.357,693.25s2.068,7.871-3.118,13.228c0,0-3.118-3.245,0-11.194Z" transform="translate(-448.125 -322.284)"/>
    <path id="Path_35394" data-name="Path 35394" class="cls-2" d="M1013.642,675.6s-.5-6.694-15.622-4.472c0,0-.072,4.317,5.235,6.362S1010.994,677.807,1013.642,675.6Z" transform="translate(-445.964 -315.155)"/>
    <path id="Path_35395" data-name="Path 35395" class="cls-2" d="M1024.414,679.5s6.39,2.051.691,16.23c0,0-4.218-.94-4.975-6.584S1021.617,681.556,1024.414,679.5Z" transform="translate(-455.785 -318.725)"/>
    <path id="Path_35396" data-name="Path 35396" class="cls-2" d="M1031.623,654.254s.868-11.017-14.582-9.889c0,0-1.106,9.95,11.857,12.537Z" transform="translate(-454.46 -303.701)"/>
    <path id="Path_35397" data-name="Path 35397" class="cls-2" d="M1047.7,632.167s-2.117-12.487-17.562-8.767c0,0-.055,10.8,15.041,11.741Z" transform="translate(-460.328 -294.442)"/>
    <path id="Path_35398" data-name="Path 35398" class="cls-2" d="M1060.16,609.115s-3.549-12.161-18.85-8.524c0,0,3.643,10.939,17.833,10.768Z" transform="translate(-465.324 -284.677)"/>
    <path id="Path_35399" data-name="Path 35399" class="cls-2" d="M1073.472,586.114s-3.466-12.62-18.242-8.844c0,0,4.931,11.99,17.264,10.978Z" transform="translate(-471.549 -274.646)"/>
    <path id="Path_35400" data-name="Path 35400" class="cls-2" d="M1083.19,562.138s-2.665-15.434-16.44-12.017c0,0,4,14.041,15.428,14.267Z" transform="translate(-476.701 -263.016)"/>
    <path id="Path_35401" data-name="Path 35401" class="cls-2" d="M1090.376,536.585s-3.2-15.555-17.136-11.056c0,0,5.461,14.7,16.147,13.184Z" transform="translate(-479.604 -252.335)"/>
    <path id="Path_35402" data-name="Path 35402" class="cls-2" d="M1096.174,509.674s-5.08-15.561-15.854-15.141c0,0,5.191,16.434,14.953,18.242Z" transform="translate(-482.77 -239.298)"/>
    <path id="Path_35403" data-name="Path 35403" class="cls-2" d="M1100.515,484.2s-5.528-18.728-14.295-17.285c0,0,3.825,14.317,13.985,20.2Z" transform="translate(-485.409 -227.381)"/>
    <path id="Path_35404" data-name="Path 35404" class="cls-2" d="M1102.64,456.87s-5.185-15.6-13.82-16.23c0,0,3.527,15.356,13.648,20.287Z" transform="translate(-486.571 -216.142)"/>
    <path id="Path_35405" data-name="Path 35405" class="cls-2" d="M1105.871,430.715s-6.462-15.621-12.161-15.975c0,0,2.808,15.384,11.608,18.54Z" transform="translate(-488.758 -205.058)"/>
    <path id="Path_35406" data-name="Path 35406" class="cls-2" d="M1109.165,404.254s-3.974-16.965-9.685-18.374c0,0,.78,13.88,9.11,19.646Z" transform="translate(-491.339 -192.659)"/>
    <path id="Path_35407" data-name="Path 35407" class="cls-2" d="M1113.776,374.388s-4.179-13.527-8.806-15.588c0,0,.912,15.948,7.739,18.894Z" transform="translate(-493.794 -181.05)"/>
    <path id="Path_35408" data-name="Path 35408" class="cls-2" d="M1121.316,346.707l.84-23.847s-8.651,17.976-1.465,28.031Z" transform="translate(-499.549 -165.52)"/>
    <path id="Path_35409" data-name="Path 35409" class="cls-2" d="M1133.487,308.216s6.23-17.413,7.739-18.385c0,0-12.216,11.3-11.022,25.831Z" transform="translate(-505.042 -151.384)"/>
    <path id="Path_35410" data-name="Path 35410" class="cls-2" d="M1042.174,662.142s10.956-1.432,10.63,14.052c0,0-9.9,1.614-13.134-11.194Z" transform="translate(-464.59 -311.314)"/>
    <path id="Path_35411" data-name="Path 35411" class="cls-2" d="M1060.806,639.06s12.659-.039,11.608,15.809c0,0-10.63,1.9-14.134-12.813Z" transform="translate(-472.913 -301.378)"/>
    <path id="Path_35412" data-name="Path 35412" class="cls-2" d="M1074.807,617.579s11.492-5.39,18.844,8.524c0,0-10.613,4.489-19.861-6.274Z" transform="translate(-479.85 -291.845)"/>
    <path id="Path_35413" data-name="Path 35413" class="cls-2" d="M1087.9,593.079s11.769-5.732,18.679,7.855c0,0-12.261,4.223-19.651-5.7Z" transform="translate(-485.726 -281.261)"/>
    <path id="Path_35414" data-name="Path 35414" class="cls-2" d="M1095.8,569.009s11.327-10.818,20.365.122c0,0-11.569,8.905-20.884,2.288Z" transform="translate(-489.46 -269.397)"/>
    <path id="Path_35415" data-name="Path 35415" class="cls-2" d="M1102.749,541.664s11.393-11.056,20.359.508c0,0-12.786,9.082-20.768,1.813Z" transform="translate(-492.618 -257.651)"/>
    <path id="Path_35416" data-name="Path 35416" class="cls-2" d="M1106.93,512.082s8.778-13.819,19.115-10.735c0,0-9.11,14.632-19.016,13.98Z" transform="translate(-494.671 -242.106)"/>
    <path id="Path_35417" data-name="Path 35417" class="cls-2" d="M1111.427,486.176s8.844-17.4,17.214-14.372c0,0-6.379,13.377-17.44,17.307Z" transform="translate(-496.58 -229.407)"/>
    <path id="Path_35418" data-name="Path 35418" class="cls-2" d="M1112,458.518s9.093-13.7,17.612-12.023c0,0-7.435,13.891-18.5,15.986Z" transform="translate(-496.544 -218.664)"/>
    <path id="Path_35419" data-name="Path 35419" class="cls-2" d="M1114,430.568s7.048-15.373,12.775-15.478c0,0-3.383,15.262-12.3,18.087Z" transform="translate(-497.832 -205.215)"/>
    <path id="Path_35420" data-name="Path 35420" class="cls-2" d="M1116.5,405.9s7.833-15.566,13.72-15.6c0,0-4.008,13.311-13.46,16.965Z" transform="translate(-498.951 -194.594)"/>
    <path id="Path_35421" data-name="Path 35421" class="cls-2" d="M1118.63,377.159s5.859-12.88,10.713-14.339c0,0-2.93,15.7-10.066,17.755Z" transform="translate(-499.903 -182.79)"/>
    <path id="Path_35422" data-name="Path 35422" class="cls-2" d="M1123.843,349.01l13.1-19.95s-3.355,19.679-15.008,23.77Z" transform="translate(-501.379 -168.23)"/>
    <path id="Path_35423" data-name="Path 35423" class="cls-2" d="M1136.521,316.13s15.218-10.5,15.771-12.2c0,0-7.739,14.709-22.111,17.307Z" transform="translate(-505.069 -157.524)"/>
    <path id="Path_35424" data-name="Path 35424" class="cls-2" d="M1142.96,303.872s17.473-16.8,21.934-16.782c0,0-14.411.658-22.354,15.887Z" transform="translate(-510.596 -150.303)"/>
    <path id="Path_35425" data-name="Path 35425" class="cls-3" d="M1118.94,358.244l.636.083c3.283-25.7,8.071-40.906,13.477-42.768l-.21-.608C1127.11,316.94,1122.29,331.915,1118.94,358.244Z" transform="translate(-500.042 -161.939)"/>
    <path id="Path_35426" data-name="Path 35426" class="cls-3" d="M1110.2,453.185l.962.077c.2-2.4.359-4.853.464-7.3.918-21.271,2.338-40.806,4.207-55.449l-.553-.691c-1.874,14.676-3.7,34.8-4.616,56.1C1110.559,448.354,1110.4,450.8,1110.2,453.185Z" transform="translate(-496.133 -193.635)"/>
    <path id="Path_35427" data-name="Path 35427" class="cls-3" d="M976.58,619.353c.166-.072,17.1-7.634,34.67-25.666a139.421,139.421,0,0,0,25.345-35.931c8.126-16.545,13.079-36.876,14.737-56.627l-1,.47c-3.731,44.333-23.913,74.625-39.96,91.126-17.4,17.871-34.145,25.356-34.311,25.428Z" transform="translate(-436.143 -239.618)"/>
    <path id="Path_35428" data-name="Path 35428" class="cls-4" d="M632.391,132.69H91.687a4.775,4.775,0,0,0-4.817,4.732v13.786H637.207V137.422A4.775,4.775,0,0,0,632.391,132.69Z" transform="translate(-48.198 -85.579)"/>
    <path id="Path_35429" data-name="Path 35429" class="cls-5" d="M86.87,166.19V490a9.838,9.838,0,0,0,9.712,9.958H627.495A9.838,9.838,0,0,0,637.207,490V166.19Z" transform="translate(-48.198 -100.561)"/>
    <circle id="Ellipse_549" data-name="Ellipse 549" class="cls-6" cx="2.211" cy="2.211" r="2.211" transform="translate(45.024 54.02)"/>
    <circle id="Ellipse_550" data-name="Ellipse 550" class="cls-7" cx="2.211" cy="2.211" r="2.211" transform="translate(51.104 54.02)"/>
    <circle id="Ellipse_551" data-name="Ellipse 551" class="cls-8" cx="2.211" cy="2.211" r="2.211" transform="translate(57.185 54.02)"/>
    <rect id="Rectangle_1474" data-name="Rectangle 1474" class="cls-9" width="434.484" height="191.051" transform="translate(88.926 123.823)"/>
    <rect id="Rectangle_1475" data-name="Rectangle 1475" class="cls-4" width="427.851" height="186.839" transform="translate(92.242 125.244)"/>
    <path id="Path_35430" data-name="Path 35430" class="cls-2" d="M360.344,349.38a42.564,42.564,0,1,0,42.564,42.564,42.564,42.564,0,0,0-42.564-42.564Zm7.634,43.587v20.154H352.931V392.967a12.465,12.465,0,1,1,15.047,0Z" transform="translate(-148.576 -176)"/>
    <path id="Path_35431" data-name="Path 35431" class="cls-10" d="M360.344,349.38a42.564,42.564,0,1,0,42.564,42.564,42.564,42.564,0,0,0-42.564-42.564Zm7.634,43.587v20.154H352.931V392.967a12.465,12.465,0,1,1,15.047,0Z" transform="translate(-148.576 -176)"/>
    <path id="Path_35432" data-name="Path 35432" class="cls-2" d="M350.505,327.38a54.725,54.725,0,1,0,54.725,54.725,54.725,54.725,0,0,0-54.725-54.725Zm9.812,56.041v25.909H340.97V383.421a16.031,16.031,0,1,1,19.347,0Z" transform="translate(-138.827 -166.198)"/>
    <rect id="Rectangle_1476" data-name="Rectangle 1476" class="cls-5" width="176.889" height="18.794" transform="translate(292.216 208.915)"/>
    <rect id="Rectangle_1477" data-name="Rectangle 1477" class="cls-11" width="38.142" height="18.794" transform="translate(431.826 244.312)"/>
    <path id="Path_35433" data-name="Path 35433" class="cls-2" d="M559.8,426.75h-3.2l2.847-2.841a.282.282,0,0,0,0-.392.276.276,0,0,0-.393,0l-2.847,2.847v-3.206a.276.276,0,0,0-.276-.276.282.282,0,0,0-.276.276v3.206l-2.841-2.863a.276.276,0,0,0-.393,0,.282.282,0,0,0,0,.392l2.847,2.841h-3.206a.282.282,0,0,0-.276.276.276.276,0,0,0,.276.276h3.206l-2.847,2.847a.282.282,0,0,0,0,.392.288.288,0,0,0,.393,0l2.841-2.847v3.2a.276.276,0,1,0,.553,0v-3.2l2.847,2.847a.288.288,0,0,0,.393,0,.282.282,0,0,0,0-.392l-2.847-2.847h3.2a.268.268,0,1,0,0-.536Z" transform="translate(-251.599 -208.711)"/>
    <path id="Path_35434" data-name="Path 35434" class="cls-2" d="M580.8,426.75h-3.2l2.847-2.841a.282.282,0,0,0,0-.392.276.276,0,0,0-.393,0l-2.847,2.847v-3.206a.276.276,0,0,0-.276-.276.282.282,0,0,0-.276.276v3.206l-2.841-2.863a.276.276,0,0,0-.392,0,.282.282,0,0,0,0,.392l2.847,2.841h-3.206a.282.282,0,0,0-.276.276.276.276,0,0,0,.276.276h3.206l-2.847,2.847a.282.282,0,0,0,0,.392.288.288,0,0,0,.393,0l2.841-2.847v3.2a.276.276,0,1,0,.553,0v-3.2l2.847,2.847a.288.288,0,0,0,.393,0,.282.282,0,0,0,0-.392l-2.847-2.847h3.2a.268.268,0,1,0,0-.536Z" transform="translate(-260.814 -208.711)"/>
    <path id="Path_35435" data-name="Path 35435" class="cls-2" d="M601.8,426.75h-3.2l2.847-2.841a.282.282,0,0,0,0-.392.276.276,0,0,0-.392,0l-2.847,2.847v-3.206a.276.276,0,0,0-.276-.276.282.282,0,0,0-.277.276v3.206l-2.841-2.863a.276.276,0,0,0-.393,0,.282.282,0,0,0,0,.392l2.847,2.841h-3.206a.282.282,0,0,0-.277.276.277.277,0,0,0,.277.276h3.206l-2.847,2.847a.282.282,0,0,0,0,.392.288.288,0,0,0,.393,0l2.841-2.847v3.2a.276.276,0,1,0,.553,0v-3.2l2.847,2.847a.287.287,0,0,0,.392,0,.282.282,0,0,0,0-.392l-2.847-2.847h3.2a.268.268,0,1,0,0-.536Z" transform="translate(-270.028 -208.711)"/>
    <path id="Path_35436" data-name="Path 35436" class="cls-2" d="M622.8,426.75h-3.2l2.847-2.841a.282.282,0,0,0,0-.392.276.276,0,0,0-.392,0l-2.847,2.847v-3.206a.276.276,0,0,0-.276-.276.282.282,0,0,0-.276.276v3.206l-2.841-2.863a.276.276,0,0,0-.392,0,.282.282,0,0,0,0,.392l2.847,2.841h-3.206a.282.282,0,0,0-.276.276.276.276,0,0,0,.276.276h3.206l-2.847,2.847a.282.282,0,0,0,0,.392.287.287,0,0,0,.392,0l2.841-2.847v3.2a.276.276,0,1,0,.553,0v-3.2l2.847,2.847a.287.287,0,0,0,.392,0,.282.282,0,0,0,0-.392l-2.847-2.847h3.2a.268.268,0,1,0,0-.536Z" transform="translate(-279.242 -208.711)"/>
    <path id="Path_35437" data-name="Path 35437" class="cls-2" d="M643.8,426.75h-3.2l2.847-2.841a.282.282,0,0,0,0-.392.276.276,0,0,0-.392,0l-2.847,2.847v-3.206a.276.276,0,0,0-.276-.276.282.282,0,0,0-.276.276v3.206l-2.841-2.863a.276.276,0,0,0-.393,0,.282.282,0,0,0,0,.392l2.847,2.841h-3.206a.282.282,0,0,0-.276.276.276.276,0,0,0,.276.276h3.206l-2.847,2.847a.282.282,0,0,0,0,.392.288.288,0,0,0,.393,0l2.841-2.847v3.2a.276.276,0,1,0,.553,0v-3.2l2.847,2.847a.287.287,0,0,0,.392,0,.282.282,0,0,0,0-.392l-2.847-2.847h3.2a.268.268,0,1,0,0-.536Z" transform="translate(-288.457 -208.711)"/>
    <path id="Path_35438" data-name="Path 35438" class="cls-2" d="M664.8,426.75h-3.2l2.847-2.841a.282.282,0,0,0,0-.392.276.276,0,0,0-.393,0l-2.847,2.847v-3.206a.276.276,0,0,0-.276-.276.282.282,0,0,0-.277.276v3.206l-2.841-2.863a.276.276,0,0,0-.392,0,.282.282,0,0,0,0,.392l2.847,2.841h-3.206a.282.282,0,0,0-.276.276.277.277,0,0,0,.276.276h3.206l-2.847,2.847a.282.282,0,0,0,0,.392.287.287,0,0,0,.392,0l2.841-2.847v3.2a.276.276,0,1,0,.553,0v-3.2l2.847,2.847a.287.287,0,0,0,.392,0,.282.282,0,0,0,0-.392l-2.847-2.847h3.2a.268.268,0,1,0,0-.536Z" transform="translate(-297.671 -208.711)"/>
    <path id="Path_35439" data-name="Path 35439" class="cls-2" d="M685.8,426.75h-3.2l2.847-2.841a.282.282,0,0,0,0-.392.276.276,0,0,0-.393,0l-2.847,2.847v-3.206a.276.276,0,0,0-.276-.276.282.282,0,0,0-.276.276v3.206l-2.841-2.863a.276.276,0,0,0-.392,0,.282.282,0,0,0,0,.392l2.847,2.841h-3.206a.282.282,0,0,0-.276.276.276.276,0,0,0,.276.276h3.206l-2.847,2.847a.282.282,0,0,0,0,.392.287.287,0,0,0,.392,0l2.841-2.847v3.2a.276.276,0,1,0,.553,0v-3.2l2.847,2.847a.288.288,0,0,0,.393,0,.282.282,0,0,0,0-.392l-2.847-2.847h3.2a.268.268,0,1,0,0-.536Z" transform="translate(-306.885 -208.711)"/>
    <path id="Path_35440" data-name="Path 35440" class="cls-2" d="M706.8,426.75h-3.2l2.847-2.841a.282.282,0,0,0,0-.392.276.276,0,0,0-.393,0l-2.847,2.847v-3.206a.276.276,0,0,0-.276-.276.282.282,0,0,0-.276.276v3.206l-2.841-2.863a.276.276,0,0,0-.393,0,.282.282,0,0,0,0,.392l2.847,2.841h-3.206a.282.282,0,0,0-.276.276.276.276,0,0,0,.276.276h3.206l-2.847,2.847a.282.282,0,0,0,0,.392.288.288,0,0,0,.393,0l2.841-2.847v3.2a.276.276,0,1,0,.553,0v-3.2l2.847,2.847a.288.288,0,0,0,.393,0,.282.282,0,0,0,0-.392l-2.847-2.847h3.2a.268.268,0,1,0,0-.536Z" transform="translate(-316.1 -208.711)"/>
    <path id="Path_35441" data-name="Path 35441" class="cls-2" d="M727.8,426.75h-3.2l2.847-2.841a.282.282,0,0,0,0-.392.276.276,0,0,0-.393,0l-2.847,2.847v-3.206a.276.276,0,0,0-.276-.276.282.282,0,0,0-.276.276v3.206l-2.841-2.863a.276.276,0,0,0-.393,0,.282.282,0,0,0,0,.392l2.847,2.841h-3.206a.282.282,0,0,0-.276.276.276.276,0,0,0,.276.276h3.206l-2.847,2.847a.282.282,0,0,0,0,.392.287.287,0,0,0,.392,0l2.841-2.847v3.2a.276.276,0,1,0,.553,0v-3.2l2.847,2.847a.288.288,0,0,0,.393,0,.282.282,0,0,0,0-.392l-2.847-2.847h3.2a.268.268,0,1,0,0-.536Z" transform="translate(-325.314 -208.711)"/>
    <path id="Path_35442" data-name="Path 35442" class="cls-2" d="M748.8,426.75h-3.2l2.847-2.841a.282.282,0,0,0,0-.392.276.276,0,0,0-.392,0l-2.847,2.847v-3.206a.276.276,0,0,0-.276-.276.282.282,0,0,0-.276.276v3.206l-2.841-2.863a.276.276,0,0,0-.392,0,.282.282,0,0,0,0,.392l2.847,2.841h-3.206a.282.282,0,0,0-.276.276.276.276,0,0,0,.276.276h3.206l-2.847,2.847a.282.282,0,0,0,0,.392.287.287,0,0,0,.392,0l2.841-2.847v3.2a.276.276,0,1,0,.553,0v-3.2l2.847,2.847a.287.287,0,0,0,.392,0,.282.282,0,0,0,0-.392l-2.847-2.847h3.2a.268.268,0,1,0,0-.536Z" transform="translate(-334.528 -208.711)"/>
    <path id="Path_35443" data-name="Path 35443" class="cls-2" d="M769.8,426.75h-3.2l2.847-2.841a.282.282,0,0,0,0-.392.276.276,0,0,0-.392,0l-2.847,2.847v-3.206a.276.276,0,0,0-.276-.276.282.282,0,0,0-.276.276v3.206l-2.841-2.863a.276.276,0,0,0-.392,0,.282.282,0,0,0,0,.392l2.847,2.841h-3.206a.282.282,0,0,0-.276.276.276.276,0,0,0,.276.276h3.206l-2.847,2.847a.282.282,0,0,0,0,.392.287.287,0,0,0,.392,0l2.841-2.847v3.2a.276.276,0,1,0,.553,0v-3.2l2.847,2.847a.287.287,0,0,0,.392,0,.282.282,0,0,0,0-.392l-2.847-2.847h3.2a.268.268,0,1,0,0-.536Z" transform="translate(-343.743 -208.711)"/>
    <path id="Path_35444" data-name="Path 35444" class="cls-12" d="M869.37,513.885a9.884,9.884,0,0,0-.249-1.984c-.5-1.868-1.62-4.129-3.466-4.693a29.084,29.084,0,0,1-5.495-2.322c-.332-5.926,1.028-11.99-.453-17.733-.553-2.1-1.465-4.113-1.708-6.263-.3-2.676.426-5.528-.641-7.993a7.888,7.888,0,0,0-4.671-4.035,24.89,24.89,0,0,0-6.23-1.106c-2.653-.216-11.243-1.233-14.24,1.139h0a3.124,3.124,0,0,0-.553.553h0a2.216,2.216,0,0,0-.177.287l-.028.044a2.24,2.24,0,0,0-.149.359h0a2.792,2.792,0,0,0-.094.415v.995c.039.5.11.995.11,1.487a3.2,3.2,0,0,1-.066.73,5.107,5.107,0,0,1-.918,1.791h0l-.1.144c-.061.088-.122.171-.177.26s-.1.155-.144.232-.088.127-.127.2a2.714,2.714,0,0,0-.144.282c0,.055-.061.1-.083.16a2.732,2.732,0,0,0-.166.464,3.085,3.085,0,0,0-.033,1.47,5.476,5.476,0,0,0,.757,1.741c.138.227.287.448.442.669l.387.525a11.95,11.95,0,0,0-.116,1.548,11.436,11.436,0,0,0,4.366,8.987,33.864,33.864,0,0,1-.07,7.016c-.05.486-.11.978-.177,1.465s-.116.807-.182,1.211a5.609,5.609,0,0,1-2.416-.182,11.393,11.393,0,0,0-1.106-.426c-1.609-.4-3.25,1.2-4.842.713a.649.649,0,0,1-.072.221,2.166,2.166,0,0,0-1.105-.326,4.032,4.032,0,0,1-2.4-1.376l-2.106-1.984a2.313,2.313,0,0,1-.365-.409,2.861,2.861,0,0,1-.254-.68,7.834,7.834,0,0,0-2.04-2.924,1.382,1.382,0,0,0-.6-.437.93.93,0,0,0-.276,0,2.432,2.432,0,0,0-.183-.221,5.212,5.212,0,0,0-.459-.464c-1.006-.929-1.106-1.725-1.979-2.764a26.573,26.573,0,0,1-2.067-3.123c-.072-.58-.171-1.177-.293-1.78A22.913,22.913,0,0,0,811,481.73l-1.106-2.449-.127.127c-.8-1.194-1.658-1.846-2.427-1.692-1.288.265-1.924,2.764-1.719,6.031l.442,3.317a1.02,1.02,0,0,0,.061.249,6.133,6.133,0,0,0-.122,1.194c0,.464.431.807.658,1.222a3.454,3.454,0,0,1,.553,1.885c-.027.238-.1.464-.11.7a2.681,2.681,0,0,0,.52,1.437l2.764,4.643.553.973.033.044a2.361,2.361,0,0,0,.741.851,10.131,10.131,0,0,0,.912,3.355c.094.21.2.409.31.608a19.546,19.546,0,0,0,2.609,3.388l1.316,1.476c1.3,1.448,2.6,2.9,4.008,4.24a5.369,5.369,0,0,0,1.791,1.255,2.028,2.028,0,0,0,2.012-.293v2.056a1.155,1.155,0,0,1,.873,1.819,45.586,45.586,0,0,1-4.091,8.657,18.427,18.427,0,0,1,3.427,2.615,15.417,15.417,0,0,1,1.785,2.416c.05.409.088.813.111,1.216.409,6.589-2.139,13.128-4.422,19.408a15.124,15.124,0,0,0-1.321,5.495,10.779,10.779,0,0,0-1.238.89,8.2,8.2,0,0,1,.227,3.5,6.211,6.211,0,0,1-.459,2.211,15.482,15.482,0,0,1-.8,1.421c-1.432,2.526-1.747,5.528-2.034,8.413-.172,1.741.5,3.869-.287,5.428a22.2,22.2,0,0,0-2.764,8.5,8.528,8.528,0,0,1-.254,1.985c-.171.553-.475,1.023-.63,1.564a6.688,6.688,0,0,0-.111,2.211,21.162,21.162,0,0,1-1.161,7.8c-.691,1.973-1.454,4.085-.912,6.114a8.616,8.616,0,0,0-2.338,5.135,8.113,8.113,0,0,1-.177,1.465,7.137,7.137,0,0,1-.663,1.41,12.337,12.337,0,0,0-1.5,6.633,18.452,18.452,0,0,0-2.979,7.783c-.492,2.758-.708,5.567-1.338,8.292-.84,3.6-2.36,7.247-2.659,10.939-1.791,1.144-2.565,3.361-2.908,5.456s-.4,4.3-1.277,6.23c-.453,1.006-1.106,1.907-1.537,2.935a13.486,13.486,0,0,0-.663,2.526,9.857,9.857,0,0,0-.171,4.146,6.254,6.254,0,0,1-1.62,1.233c.088-.343.16-.685.221-1.034-1.426,1.294-4.013.84-5.152,2.394a2.333,2.333,0,0,0,.553,3.2,4.422,4.422,0,0,0,1.144.492c2.764.885,5.605,1.775,8.447,1.3a2.519,2.519,0,0,0,.956-.3,3.077,3.077,0,0,0,.89-1.028c.426-.674.851-1.349,1.271-2.023a26.238,26.238,0,0,0,3.1.724c.1.885.182,1.769.221,2.653.553.111,1.294.144,1.553-.37a1.343,1.343,0,0,0,.094-.613c0-.393.055-.912.088-1.443h.111a10.5,10.5,0,0,0,4.892-.99c-.591-4.9,1.36-9.685,3.051-14.317,1.785-4.876,3.317-9.839,4.859-14.8,1.105-3.494,2.327-6.877,3.411-10.376q2.045-6.633,4.107-13.267c.6-1.946,1.2-3.87,1.885-5.8a90.441,90.441,0,0,1,5.124-11.4c.553-1.045,1.106-2.078,1.559-3.162.553-1.321.945-2.7,1.387-4.068a63.012,63.012,0,0,1,3.472-8.17c.038-.072.066-.138.1-.2.448,1.83.9,3.687,1.194,5.528a21.006,21.006,0,0,1,.094,6.832,22.526,22.526,0,0,0-.708,4.632c.083,2.161,1.238,4.124,1.808,6.208a23.624,23.624,0,0,1,.619,4.754c.155,2.488,1.5,5.279.553,7.584-2.957,7.3-1.526,15.55-3.212,23.217-.868,3.936-3.527,7.634-3.317,11.658q.221,4.284.752,8.546a8.139,8.139,0,0,0,.691,2.593,9.521,9.521,0,0,0,.757,1.238c-.243.094-.448.343-.625.868a3.411,3.411,0,0,0,1.227,3.87,5.376,5.376,0,0,0,1.6.553,8.411,8.411,0,0,0,2.311.32,5.38,5.38,0,0,0,.724-.088,26.359,26.359,0,0,0,2.615.94,5.67,5.67,0,0,0,.072.68.846.846,0,0,0,.287.625.866.866,0,0,0,.442.077h3v-.752a2.471,2.471,0,0,0,1.907-.619,2.952,2.952,0,0,0,.553-1.15q1.227-4.163,2.438-8.33a26.637,26.637,0,0,0,1.188-9.508c-1.067-10.188,1.277-20.409.514-30.624a73.363,73.363,0,0,1,.94-18.374c.249-1.371.553-2.764.663-4.129.243-2.576-.055-5.179.127-7.739.061-.9.182-1.785.293-2.675a128.487,128.487,0,0,0,1.189-16.666,52.538,52.538,0,0,0-.343-5.528,3.156,3.156,0,0,0,1.509-.884,3.759,3.759,0,0,0,.359-2.36,17.112,17.112,0,0,1,1.487-5.649,67.1,67.1,0,0,0,2.089-7.772,27.141,27.141,0,0,0,.929-6.5q0-.332-.033-.663a1.713,1.713,0,0,0,.509-.553,3.212,3.212,0,0,0,.265-1.023c.2-1.41.4-2.825.6-4.24q.221-1.52.437-3.035L868.4,529.18c.149-1.067.3-2.128.453-3.19l.459-3.173c.05-.376.105-.752.144-1.106C870.8,519.457,869.514,516.45,869.37,513.885ZM854.705,559.81a10.107,10.107,0,0,1-1.106-4.8h-.061a2.467,2.467,0,0,0-.072-1.559c-.171-.4-.47-.746-.652-1.15a4.212,4.212,0,0,1-.3-1.548,42.193,42.193,0,0,1,.791-10.027c.072-.387.149-.779.221-1.166a2.887,2.887,0,0,0,.63-.492,4.493,4.493,0,0,0,.713-1.106c.625-1.255,1.194-2.532,1.719-3.831.171-.42.42-.907.846-1.012-.088,3.234.243,6.534-1.072,9.453a5.976,5.976,0,0,0-.553,1.492c-.122.824.221,1.658.1,2.477-.061.426-.243.818-.315,1.238a1.211,1.211,0,0,0,.321,1.172.971.971,0,0,0,.238.122c-.033.221-.061.448-.083.663-.044.453-.066.879-.094,1.144a35.7,35.7,0,0,0-.149,4.068c0,1.465.055,2.93.033,4.422a3,3,0,0,1-.21,1.255,2.183,2.183,0,0,1-.42.553A14.369,14.369,0,0,0,854.705,559.81Z" transform="translate(-353.242 -221.259)"/>
    <ellipse id="Ellipse_552" data-name="Ellipse 552" class="cls-13" cx="3.118" cy="8.828" rx="3.118" ry="8.828" transform="matrix(0.98, -0.201, 0.201, 0.98, 450.654, 251.706)"/>
    <path id="Path_35445" data-name="Path 35445" class="cls-4" d="M878.261,838.036a3.347,3.347,0,0,0,1.227,3.831,5.468,5.468,0,0,0,1.587.553,8.374,8.374,0,0,0,2.3.315c.956-.044,1.874-.42,2.83-.553a.444.444,0,0,1,.326.044.471.471,0,0,1,.121.387,14.593,14.593,0,0,0,.121,1.625.835.835,0,0,0,.288.625.861.861,0,0,0,.442.077h3a29.22,29.22,0,0,0-.857-7.816,1.748,1.748,0,0,0-.221-.553,1.83,1.83,0,0,0-.956-.553,5.345,5.345,0,0,0-2.316-.4,6.785,6.785,0,0,0-2.6,1.272,3.958,3.958,0,0,1-2.946.713C879.61,837.334,878.775,836.5,878.261,838.036Z" transform="translate(-394.729 -385.95)"/>
    <path id="Path_35446" data-name="Path 35446" class="cls-13" d="M795.818,834.691a8.291,8.291,0,0,1-3.024,2.056l-.509.243a.353.353,0,0,0-.171.138.3.3,0,0,0,.055.249,3.576,3.576,0,0,0,4.057,1.476,2.151,2.151,0,0,0,.89-.464,2.918,2.918,0,0,0,.685-1.78,3.644,3.644,0,0,0-.083-2.04C796.951,832.839,796.669,833.624,795.818,834.691Z" transform="translate(-357.075 -385.031)"/>
    <path id="Path_35447" data-name="Path 35447" class="cls-4" d="M804.566,841.759a1.346,1.346,0,0,1-.094.614c-.26.508-.984.481-1.548.37a37.194,37.194,0,0,0-.68-5.583c-1.072-.05-1.846.967-2.421,1.879l-1.481,2.349a3.064,3.064,0,0,1-.884,1.028,2.619,2.619,0,0,1-.956.3c-2.83.47-5.688-.42-8.419-1.3a4.462,4.462,0,0,1-1.144-.486,2.338,2.338,0,0,1-.553-3.2c1.144-1.548,3.715-1.105,5.141-2.388a12.873,12.873,0,0,1-.73,2.637c1.907-.287,3.189-2.034,4.726-3.2a2.91,2.91,0,0,1,1.349-.641,2.968,2.968,0,0,1,1.106.116,12.968,12.968,0,0,1,4.864,2.393,5.242,5.242,0,0,1,1.741,1.813A13.423,13.423,0,0,1,804.566,841.759Z" transform="translate(-354.254 -385.289)"/>
    <circle id="Ellipse_553" data-name="Ellipse 553" class="cls-13" cx="11.42" cy="11.42" r="11.42" transform="translate(477.667 245.118)"/>
    <path id="Path_35448" data-name="Path 35448" class="cls-4" d="M919.509,616.4a27.079,27.079,0,0,1-.923,6.462,66.677,66.677,0,0,1-2.09,7.739,17.039,17.039,0,0,0-1.476,5.638,3.749,3.749,0,0,1-.365,2.355,3.438,3.438,0,0,1-1.614.923,2.018,2.018,0,0,0-1.36,1.211,8.542,8.542,0,0,1-1.15-2.532q-1.487-4.555-2.764-9.16a1.189,1.189,0,0,1,.078-1.105,1.373,1.373,0,0,1,.481-.271,4.974,4.974,0,0,0,1.531-.984,2.235,2.235,0,0,0,.508-.658,2.98,2.98,0,0,0,.216-1.249c0-1.465,0-2.924-.039-4.389a36.65,36.65,0,0,1,.155-4.052c0-.265.05-.691.094-1.144.083-.868.249-1.874.719-2.211.7-.47,2.8.16,3.6.271,1.371.188,2.764.409,4.1.669A10.951,10.951,0,0,1,919.509,616.4Z" transform="translate(-407.713 -289.812)"/>
    <path id="Path_35449" data-name="Path 35449" class="cls-4" d="M835.552,511.2c-.442.884-1.5,1.31-2.322,1.868l-2.8,1.924a1.869,1.869,0,0,1-1.388.475,1.823,1.823,0,0,1-1.034-.967.2.2,0,0,0,0-.044l-.58-.973-2.764-4.632a2.636,2.636,0,0,1-.514-1.426c0-.238.083-.459.105-.7a3.344,3.344,0,0,0-.553-1.879c-.221-.415-.663-.757-.652-1.222a4.422,4.422,0,0,1,.31-1.786,3.616,3.616,0,0,1,1.21-1.294c.26-.188.525-.365.8-.553a1.582,1.582,0,0,1,.481-.221c.459-.094.912.287,1.377.3,2,1.338,2.764,3.869,4.334,5.694.884,1.039.973,1.835,1.973,2.764.16.144.315.3.464.459a3.215,3.215,0,0,1,.5.719C834.678,510.192,835.779,510.751,835.552,511.2Z" transform="translate(-370.579 -241.594)"/>
    <path id="Path_35450" data-name="Path 35450" class="cls-13" d="M876.965,511.2a10.291,10.291,0,0,1,1.227,5.566,3.477,3.477,0,0,1-.481,1.465c-.8,1.222-2.465,1.443-3.919,1.515a2.311,2.311,0,0,0-1.7.553,1.547,1.547,0,0,0,.105,1.89,4.269,4.269,0,0,0,1.692,1.106,14.976,14.976,0,0,0,7.28,1.614c1.161-.111,2.289-.448,3.444-.619a36.164,36.164,0,0,1,3.792-.21c1.5-.055,3-.2,4.5-.354l3.969-.393a.885.885,0,0,0,.591-.215c.293-.343-.083-.846-.448-1.106-2.106-1.559-4.787-2.631-5.987-4.975a29.275,29.275,0,0,1-1.133-3.615,30.4,30.4,0,0,1-1.316-3.488,23.1,23.1,0,0,1-.182-3.217,4.318,4.318,0,0,0-1.106-2.941,4.608,4.608,0,0,0-3.007-.967,9.734,9.734,0,0,0-7.33,2.377c-.5.5-.934,1.106-1.454,1.559s-1.227.586-.885,1.183,1.017.967,1.382,1.493a12.712,12.712,0,0,1,.968,1.78Z" transform="translate(-391.821 -242.771)"/>
    <path id="Path_35451" data-name="Path 35451" class="cls-4" d="M889.8,535.594a62.8,62.8,0,0,1-3.383,12.454,46.862,46.862,0,0,0-1.99,5.583c-.426,1.714-.343,3.549-.735,5.268-.486,2.139-.973,4.284-1.365,6.44a42.217,42.217,0,0,0-.785,10.005,4.183,4.183,0,0,0,.3,1.542c.183.4.475.741.647,1.15a2.763,2.763,0,0,1-.155,2.211,6.407,6.407,0,0,1-1.139,1.725c-5.152,1.537-10.663,1.034-16.031,1.36-4.948.3-9.95,1.316-14.826.47-.553-2.211.37-4.527,1.161-6.683,2.294-6.263,4.831-12.786,4.422-19.347a20.026,20.026,0,0,0-.26-2.283c-.8-4.649.072-9.464,1.47-13.969a23.97,23.97,0,0,0,.63-8.723,15.936,15.936,0,0,1-.039-2.858,5.025,5.025,0,0,1,1.039-2.67c0-.039.05-.077.077-.116a.759.759,0,0,1,.415,0h0a.354.354,0,0,0,.276,0l.061-.039a.138.138,0,0,1,.16,0c.127.077.2.343.475.392a11,11,0,0,0,1.233.116,6.629,6.629,0,0,1,1.47.21h.066a4.316,4.316,0,0,0,2.145-.182,5.694,5.694,0,0,0,1.316-.509c.122-.133.885-.254,1.039-.348.5-.3.392-1.73.5-2.316a6.375,6.375,0,0,1,.415-1.714,2.919,2.919,0,0,1,2.366-1.376,12.6,12.6,0,0,1,2.836.254c2.062.293,4.173.243,6.2.719,1.017.238,2.128.6,3.062.133.254.061.293.282.293.553a3.54,3.54,0,0,1-.155.757c-.354,1.526.845,2.93,1.951,4.035a6.257,6.257,0,0,0,1.631,1.3c.553.254,1.106.359,1.658.636a3.018,3.018,0,0,1,1.106,1.012,4.224,4.224,0,0,1,.63,1.609A9.623,9.623,0,0,1,889.8,535.594Z" transform="translate(-382.157 -249.824)"/>
    <path id="Path_35452" data-name="Path 35452" class="cls-14" d="M894.006,540.207a62.805,62.805,0,0,1-3.383,12.454,46.887,46.887,0,0,0-1.99,5.583c-.426,1.714-.343,3.549-.735,5.268-.486,2.139-.973,4.284-1.365,6.44-.116.066-.238.127-.359.182a8.482,8.482,0,0,1-2.167.7,13.271,13.271,0,0,1-4.046-.133l-7.888-1.056c-3.151-.426-6.506-.94-8.845-3.073a18.879,18.879,0,0,1-3.085-4.212,20.041,20.041,0,0,0-.26-2.283c-.8-4.649.072-9.464,1.47-13.969a23.974,23.974,0,0,0,.63-8.723,15.942,15.942,0,0,1-.039-2.858,5.026,5.026,0,0,1,1.039-2.67,3.923,3.923,0,0,1,.492-.111h0a2.459,2.459,0,0,1,.337-.044h.16a2.414,2.414,0,0,1,.553.066,10.016,10.016,0,0,1,1.106.426h.066a4.233,4.233,0,0,0,1.47.21c.73,0,1.481-.116,2.211-.166a4.08,4.08,0,0,1,2.62.47,15.7,15.7,0,0,1,1.459,1.332,6.268,6.268,0,0,0,1.841,1,19.563,19.563,0,0,0,14.715-.31,2.879,2.879,0,0,1,1.476-.376,2.763,2.763,0,0,1,1.061.453c.332.193.658.381.995.553a4.224,4.224,0,0,1,.63,1.608A9.623,9.623,0,0,1,894.006,540.207Z" transform="translate(-386.346 -254.797)"/>
    <path id="Path_35453" data-name="Path 35453" class="cls-15" d="M894.958,535.69a29.5,29.5,0,0,1-6.3-2.764,2.825,2.825,0,0,0-1.061-.453,2.967,2.967,0,0,0-1.481.376,19.552,19.552,0,0,1-14.709.31,6.4,6.4,0,0,1-1.841-1,16.518,16.518,0,0,0-1.459-1.332c-1.819-1.178-4.334.2-6.368-.553a11.252,11.252,0,0,0-1.106-.426c-1.608-.4-3.245,1.2-4.826.713a26.89,26.89,0,0,0-1.3,4.931,53.8,53.8,0,0,0-.359,5.815c0,1.166-.055,2.333,0,3.5a1.148,1.148,0,0,1,.873,1.813,45.3,45.3,0,0,1-4.079,8.629,18.744,18.744,0,0,1,3.416,2.609c1.935,2.045,2.885,4.914,4.975,6.8,2.355,2.128,5.71,2.648,8.844,3.068l7.888,1.056a13.482,13.482,0,0,0,4.052.138,8.527,8.527,0,0,0,2.161-.7,3.874,3.874,0,0,0,1.205-.8,4.419,4.419,0,0,0,.713-1.106c.625-1.249,1.194-2.526,1.719-3.82.182-.459.459-.995.956-1.034,2.93-2.642,5.693-5.351,8.623-7.993a19.121,19.121,0,0,0,3.146-3.317c1.454-2.15.133-5.2,0-7.794a9.845,9.845,0,0,0-.249-1.973C897.915,538.5,896.8,536.248,894.958,535.69Z" transform="translate(-382.391 -253.975)"/>
    <path id="Path_35454" data-name="Path 35454" class="cls-14" d="M839.562,518.594c-.442.885-1.5,1.31-2.322,1.869l-2.8,1.923a1.868,1.868,0,0,1-1.387.475,1.824,1.824,0,0,1-1.034-.967v-.4a3.711,3.711,0,0,1,.177-1.321,4.118,4.118,0,0,1,1.238-1.592,10.139,10.139,0,0,1,3.632-2.211,1.244,1.244,0,0,1,.663-.066.871.871,0,0,1,.243.105,3.207,3.207,0,0,1,.5.719C838.689,517.582,839.789,518.141,839.562,518.594Z" transform="translate(-374.567 -248.863)"/>
    <path id="Path_35455" data-name="Path 35455" class="cls-15" d="M846.716,524.709a4.028,4.028,0,0,1-2.393-1.371l-2.095-1.946a1.955,1.955,0,0,1-.365-.409,2.871,2.871,0,0,1-.254-.68,7.8,7.8,0,0,0-2.034-2.919,1.325,1.325,0,0,0-.6-.431,1.21,1.21,0,0,0-.669.066,10.11,10.11,0,0,0-3.632,2.211,4.131,4.131,0,0,0-1.238,1.592,3.678,3.678,0,0,0-.177,1.321,10.15,10.15,0,0,0,.962,4.223c.094.2.2.409.309.608a19.141,19.141,0,0,0,2.6,3.377l1.316,1.47c1.293,1.448,2.587,2.9,3.991,4.229a5.273,5.273,0,0,0,1.791,1.249,2,2,0,0,0,2.056-.332,2.972,2.972,0,0,0,.586-1.05,20.671,20.671,0,0,0,1.708-6.893,26.039,26.039,0,0,0-.122-2.858C848.37,525.163,847.656,524.77,846.716,524.709Z" transform="translate(-375.026 -248.869)"/>
    <path id="Path_35456" data-name="Path 35456" class="cls-16" d="M864.526,650.392a127.75,127.75,0,0,1-1.183,16.622c-.111.89-.232,1.78-.293,2.67-.182,2.581.116,5.174-.127,7.739-.127,1.387-.415,2.764-.658,4.118a73.232,73.232,0,0,0-.94,18.325c.763,10.188-1.575,20.381-.514,30.541a24.688,24.688,0,0,1-.326,5.909,25.038,25.038,0,0,1-.857,3.571q-1.211,4.152-2.432,8.292a2.875,2.875,0,0,1-.553,1.15,2.62,2.62,0,0,1-2.073.614c-3.189-.1-6.191-1.476-9.088-2.819a3.17,3.17,0,0,1-.912-.553c-.6-.625-.553-1.609-.818-2.432a23.164,23.164,0,0,0-1.393-2.443,7.978,7.978,0,0,1-.6-2.515q-.553-4.245-.752-8.524c-.21-4.013,2.443-7.706,3.317-11.608,1.658-7.673.254-15.9,3.2-23.178.929-2.3-.42-5.086-.553-7.562a23.988,23.988,0,0,0-.619-4.743c-.553-2.078-1.719-4.035-1.8-6.191a22.758,22.758,0,0,1,.7-4.616,20.742,20.742,0,0,0-.094-6.816c-.293-1.857-.741-3.715-1.189-5.528l-.1.2a62.457,62.457,0,0,0-3.466,8.153c-.442,1.354-.829,2.736-1.382,4.052-.453,1.106-1.012,2.117-1.559,3.156a90.632,90.632,0,0,0-5.113,11.359c-.685,1.912-1.288,3.869-1.885,5.788l-4.1,13.267c-1.105,3.488-2.316,6.86-3.4,10.342-1.531,4.975-3.062,9.906-4.842,14.77-1.658,4.616-3.632,9.4-3.04,14.273a10.5,10.5,0,0,1-4.881.99,28.577,28.577,0,0,1-8.292-2.012,6.445,6.445,0,0,1-2.863-1.7c-1.227-1.5-.923-3.693-.553-5.6a13.542,13.542,0,0,1,.663-2.521c.42-1.017,1.106-1.918,1.537-2.924.868-1.929.923-4.113,1.266-6.208s1.106-4.306,2.9-5.445c.3-3.682,1.819-7.313,2.653-10.912.63-2.725.84-5.528,1.338-8.292a18.211,18.211,0,0,1,2.968-7.767,12.311,12.311,0,0,1,1.5-6.633,7.254,7.254,0,0,0,.658-1.409,8.109,8.109,0,0,0,.177-1.459,8.629,8.629,0,0,1,2.333-5.124c-.553-2.018.216-4.124.906-6.081a21.129,21.129,0,0,0,1.161-7.778,6.819,6.819,0,0,1,.1-2.211c.155-.553.459-1.023.636-1.553a8.84,8.84,0,0,0,.249-1.984,22.955,22.955,0,0,1,2.764-8.48c.8-1.559.122-3.676.287-5.412.287-2.886.6-5.871,2.034-8.386.265-.475.553-.929.791-1.421a6.154,6.154,0,0,0,.459-2.211,8.144,8.144,0,0,0-.227-3.494c2.957-2.46,6.993-3.151,10.84-3.317s7.739.182,11.5-.636c1.106-.249,2.211-.591,3.378-.757a21.849,21.849,0,0,1,7.949.813,9.47,9.47,0,0,0,1.105,4.793,51.446,51.446,0,0,1,4.1,19.745Z" transform="translate(-359.047 -291.725)"/>
    <path id="Path_35457" data-name="Path 35457" class="cls-14" d="M888.479,673.29l-6.351,14.284c-.293-1.857-.741-3.715-1.188-5.528l-.1.2v-.3l3.46-7.612Z" transform="translate(-395.991 -316.111)"/>
    <path id="Path_35458" data-name="Path 35458" class="cls-14" d="M922.006,616.4a2.389,2.389,0,0,1-1.26.47,6.133,6.133,0,0,1-2.067-.282l-4.975-1.244a2.443,2.443,0,0,1-.453-.16c.083-.868.249-1.874.719-2.211.7-.47,2.8.16,3.6.271,1.371.188,2.764.409,4.1.669a10.954,10.954,0,0,1,.337,2.488Z" transform="translate(-410.199 -290.379)"/>
    <path id="Path_35459" data-name="Path 35459" class="cls-15" d="M925.8,558.382c.1.459.254.912.343,1.376a10.5,10.5,0,0,1-.116,3.422l-.453,3.162-.453,3.178-1.752,12.233-.431,3.029-.608,4.229a3.036,3.036,0,0,1-.265,1.017,2.117,2.117,0,0,1-1.73,1.023,6.271,6.271,0,0,1-2.067-.282l-4.975-1.249a1.559,1.559,0,0,1-.608-.249,1.2,1.2,0,0,1-.321-1.166c.072-.42.254-.813.315-1.233.122-.818-.221-1.658-.1-2.471a6.148,6.148,0,0,1,.553-1.487c1.659-3.665.7-7.943,1.26-11.923a18.074,18.074,0,0,1,3.836-8.535,24.494,24.494,0,0,1,4.234-4.157,8.521,8.521,0,0,1,2.383-1.658C925.84,556.431,925.63,557.686,925.8,558.382Z" transform="translate(-409.728 -265.579)"/>
    <path id="Path_35460" data-name="Path 35460" class="cls-16" d="M864.418,471.4c-.365,1.161.2,2.438-.055,3.621-.282,1.3-1.509,2.211-1.857,3.521-.553,2,1.139,3.814,2.377,5.472,4.588,6.158,3.986,14.682,2.416,22.194a114.6,114.6,0,0,1-5.224,17.689,13.554,13.554,0,0,1-2.814,4.936c2.543-.73,5.246-1.465,7.794-.757,3.228.9,6.014,4.03,9.287,3.317,1.968-.437,3.35-2.183,5.119-3.151,3.317-1.786,7.313-.663,11.011-.089a4.322,4.322,0,0,0,2.4-.122,4,4,0,0,0,1.459-1.343,13.633,13.633,0,0,0,2.841-7.352,9.43,9.43,0,0,0-2.714-7.258,15.533,15.533,0,0,1-2.327-2.211,6.865,6.865,0,0,1-.912-3.35c-.437-6.081,1.045-12.288-.481-18.17a44.84,44.84,0,0,1-1.7-6.246c-.3-2.67.42-5.528-.641-7.971a7.817,7.817,0,0,0-4.66-4.024A25.522,25.522,0,0,0,879.531,469C876.5,468.746,865.683,467.447,864.418,471.4Z" transform="translate(-386.143 -227.279)"/>
    <g id="Group_11863" data-name="Group 11863" class="cls-17" transform="translate(473.111 242.877)">
      <path id="Path_35461" data-name="Path 35461" d="M869.6,512.857a114.377,114.377,0,0,1-5.2,17.617c.381-.757.7-1.553,1.006-2.344a113.974,113.974,0,0,0,5.224-17.689c1.575-7.518,2.178-16.03-2.41-22.194-1.106-1.47-2.526-3.062-2.476-4.787a5.9,5.9,0,0,0-.94,1.736c-.553,2,1.139,3.814,2.377,5.473C871.769,496.821,871.166,505.345,869.6,512.857Z" transform="translate(-861.559 -476.782)"/>
      <path id="Path_35462" data-name="Path 35462" d="M868.493,475.708a5.382,5.382,0,0,0,.973-1.863,9.469,9.469,0,0,0-.066-2.465,2.659,2.659,0,0,0-.918,1.266C868.155,473.624,868.531,474.686,868.493,475.708Z" transform="translate(-863.324 -471.38)"/>
      <path id="Path_35463" data-name="Path 35463" d="M897.374,567.72a3.98,3.98,0,0,1-1.459,1.338,4.223,4.223,0,0,1-2.4.122c-3.7-.553-7.739-1.691-11.011.094-1.774.962-3.151,2.709-5.124,3.151-3.267.73-6.053-2.4-9.281-3.317-2.289-.636-4.7-.111-7,.553a9.66,9.66,0,0,1-1.83,2.642c2.543-.73,5.246-1.465,7.794-.757,3.228.9,6.014,4.03,9.287,3.317,1.968-.437,3.35-2.183,5.119-3.151,3.317-1.785,7.313-.663,11.011-.088a4.324,4.324,0,0,0,2.4-.122,4,4,0,0,0,1.459-1.343,14.855,14.855,0,0,0,2.288-4.378,16.063,16.063,0,0,1-1.249,1.94Z" transform="translate(-859.26 -513.598)"/>
    </g>
  </g>
</svg>
