<svg width="20" height="20" xmlns="http://www.w3.org/2000/svg" xmlns:xlink="http://www.w3.org/1999/xlink" xmlns:svgjs="http://svgjs.com/svgjs" fill="#262e42"><svg xmlns="http://www.w3.org/2000/svg" width="20" height="20"><path paint-order="stroke fill markers" fill-rule="evenodd" d="M19.728 17.291l-3.895-3.894a.937.937 0 0 0-.664-.273h-.637a8.083 8.083 0 0 0 1.72-5A8.124 8.124 0 0 0 8.124 0 8.124 8.124 0 0 0 0 8.124a8.124 8.124 0 0 0 8.125 8.124c1.887 0 3.622-.64 5-1.718v.636c0 .25.099.489.274.664l3.895 3.895a.934.934 0 0 0 1.324 0l1.106-1.106a.942.942 0 0 0 .004-1.328zM8.125 13.124c-2.761 0-5-2.234-5-5 0-2.761 2.235-5 5-5 2.762 0 5 2.235 5 5 0 2.762-2.234 5-5 5z"/></svg></svg>