<svg xmlns="http://www.w3.org/2000/svg" width="654.36" height="487" viewBox="0 0 654.36 487">
  <g id="Sign_Up_Illustration" data-name="Sign Up Illustration" style="isolation: isolate">
    <g id="freepik--Floor--inject-35" transform="translate(0 237.078)">
      <path id="Path_34591" data-name="Path 34591" d="M169.377,459c127.776,48.8,334.933,48.812,462.709,0s127.758-127.923,0-176.72-334.933-48.8-462.709,0S41.619,410.2,169.377,459Z" transform="translate(-73.551 -245.68)" fill="#d0e2d4"/>
    </g>
    <g id="freepik--Shadow--inject-35" transform="translate(515.479 381.792)">
      <ellipse id="Ellipse_576" data-name="Ellipse 576" cx="42.611" cy="16.271" rx="42.611" ry="16.271" fill="#e5e5e5"/>
    </g>
    <g id="freepik--Plants--inject-35" transform="translate(45.735 200.773)">
      <path id="Path_34592" data-name="Path 34592" d="M120,372.838l15.075-6.969a50.161,50.161,0,0,0,18.542-20.907c4.654-10.283,4.005-18.1.668-22.021-4.1-4.829-14.723-3.982-15.149,6.181C138.246,349.152,130.959,363.046,120,372.838Z" transform="translate(-79.608 -173.215)" fill="#57bb72"/>
      <path id="Path_34593" data-name="Path 34593" d="M120,372.838l15.075-6.969a50.161,50.161,0,0,0,18.542-20.907c4.654-10.283,4.005-18.1.668-22.021-4.1-4.829-14.723-3.982-15.149,6.181C138.246,349.152,130.959,363.046,120,372.838Z" transform="translate(-79.608 -173.215)" opacity="0.2"/>
      <path id="Path_34594" data-name="Path 34594" d="M120.422,372.045a.924.924,0,0,1-.875-.524.672.672,0,0,1,.356-.828c34.86-19.317,28.11-46.257,28.036-46.524a.779.779,0,0,1,.732-.9.966.966,0,0,1,1.122.587c0,.282,7.12,28.143-28.778,48.055A1.147,1.147,0,0,1,120.422,372.045Z" transform="translate(-80.03 -171.68)" fill="#fff"/>
      <path id="Path_34595" data-name="Path 34595" d="M108.4,389.415s-5.248-3.418-3.987-8.054,4.654-7.965-1.15-13.938-7.417-13.938-.482-18.247c5.285-3.343,13.536,1.382,16.5-7.43,2.188-6.449,1.446-20.729,11.7-25.483s16.688,2.407,15.075,12.1c-1.409,8.663-3.412,17-1.854,19.317,3,4.458,8.14,3.848,7.9,11.991-.2,7.578-9.16,13.849-9.16,13.849Z" transform="translate(-98.217 -175.809)" fill="#57bb72"/>
      <path id="Path_34596" data-name="Path 34596" d="M113.714,379.141a.9.9,0,0,1-.927-.654c-2.652-17.608,3.709-48.01,8.9-57.044a.845.845,0,0,1,.531-.445,1.137,1.137,0,0,1,.767.029.821.821,0,0,1,.481.415.6.6,0,0,1-.036.565c-5.136,8.916-11.274,39.406-8.734,56.242a.8.8,0,0,1-.816.817Z" transform="translate(-86.302 -172.802)" fill="#fff"/>
      <path id="Path_34597" data-name="Path 34597" d="M117.868,355.124a.941.941,0,0,1-.408-.074c-6.434-2.511-10.514-11.471-10.68-11.887a.629.629,0,0,1,.148-.746,1.062,1.062,0,0,1,.886-.257.89.89,0,0,1,.709.5c0,.089,3.987,8.767,9.753,11.011a.709.709,0,0,1,.5.836.909.909,0,0,1-.907.575Z" transform="translate(-90.956 -162.499)" fill="#fff"/>
      <path id="Path_34598" data-name="Path 34598" d="M113.095,360.036a.924.924,0,0,1-.853-.476.7.7,0,0,1,.5-.966c10.829-3.477,17.578-13.8,17.652-13.923a1.05,1.05,0,0,1,1.252-.319.68.68,0,0,1,.4,1c-.3.446-7.139,10.936-18.543,14.621a.972.972,0,0,1-.408.06Z" transform="translate(-86.294 -161.468)" fill="#fff"/>
      <path id="Path_34599" data-name="Path 34599" d="M320.958,322.2s-8.1-10.52-8.9-21.947,2.336-16.182,6.638-17.549,4.636,2.838,6.842,5.319,6.712,1.07,8.381-6.672,7.751-20.8,20.4-23.344c13.907-2.764,6.453,10.312,2.948,15.409s-6.212,12.051-3.912,13.938,5.878-1.6,9.271,1.635c4.135,3.908-8.715,17.98-16.095,21.382Z" transform="translate(84.351 -203.57)" fill="#57bb72"/>
      <path id="Path_34600" data-name="Path 34600" d="M323.2,315.375h0a1.038,1.038,0,0,1-.645-.238.664.664,0,0,1-.245-.534c1.256-18.381,8.409-36.192,20.768-51.71a.958.958,0,0,1,.605-.3,1.083,1.083,0,0,1,.693.141.652.652,0,0,1,.2,1.025c-12.138,15.291-19.162,32.827-20.4,50.922a.7.7,0,0,1-.31.513A1.079,1.079,0,0,1,323.2,315.375Z" transform="translate(93.215 -201.163)" fill="#fff"/>
      <path id="Path_34601" data-name="Path 34601" d="M327.357,295.633a1.18,1.18,0,0,1-.445-.089c-5.192-2.3-8.066-9.138-8.177-9.421a.61.61,0,0,1,.04-.572.891.891,0,0,1,.535-.379.991.991,0,0,1,1.168.476s2.781,6.583,7.417,8.589a.683.683,0,0,1,.352,1.01A.976.976,0,0,1,327.357,295.633Z" transform="translate(90.116 -190.202)" fill="#fff"/>
      <path id="Path_34602" data-name="Path 34602" d="M324.274,292.505a.91.91,0,0,1-.89-.565.6.6,0,0,1,.1-.558.92.92,0,0,1,.567-.333c13.388-2.719,18.023-8.336,18.06-8.4a1.079,1.079,0,0,1,1.289-.23.666.666,0,0,1,.287,1.033c-.2.253-5.025,6.152-19.173,9.034Z" transform="translate(94.107 -191.577)" fill="#fff"/>
      <path id="Path_34603" data-name="Path 34603" d="M239.268,316.781s-17.782-3.477-18.709-30.164c-.983-28.8,4.357-62.409-16.688-65.128S171.142,239.32,171.4,263.318c.241,21.011,10.81,66.629,67.791,75.574Z" transform="translate(-35.701 -221.247)" fill="#57bb72"/>
      <path id="Path_34604" data-name="Path 34604" d="M239.268,316.781s-17.782-3.477-18.709-30.164c-.983-28.8,4.357-62.409-16.688-65.128S171.142,239.32,171.4,263.318c.241,21.011,10.81,66.629,67.791,75.574Z" transform="translate(-35.701 -221.247)" opacity="0.2"/>
      <path id="Path_34605" data-name="Path 34605" d="M229.912,333.021h-.167c-12.813-1.872-23.252-7.534-31.022-16.806-23.03-27.534-15.78-78.947-13.388-87.922a.962.962,0,0,1,1.094-.58.791.791,0,0,1,.723.892c-2.355,8.915-9.568,59.674,13.11,86.777,6.674,8.5,17.49,14.363,29.816,16.167a.968.968,0,0,1,.6.314.626.626,0,0,1,.142.563A.882.882,0,0,1,229.912,333.021Z" transform="translate(-26.346 -218.11)" fill="#fff"/>
      <path id="Path_34606" data-name="Path 34606" d="M258.7,388.233c-18.376,1.991-48.21,1.961-65.436-8.916s-13.629-20.238-7.009-24.146,12.368-8.366.983-17.043-29.668-22.616-35.6-43.523-3-33.983,8.641-38.337c11.292-4.22,14.278,2.5,21.194,16.345s22.473,1.976,35.787,6.3,12.776,12.883,13.61,20.238,5.229,9.391,12.776,9.391,15.057,3.477,15.057,10.4Z" transform="translate(-55.133 -204.837)" fill="#57bb72"/>
      <path id="Path_34607" data-name="Path 34607" d="M250.065,354.66a.694.694,0,0,1-.241,0c-.8-.178-19.8-4.606-47.487-24.978-29.483-21.694-43.389-54.236-43.538-54.563a.737.737,0,0,1,.593-.936,1,1,0,0,1,1.168.461c.13.327,13.907,32.512,43.037,53.939,27.294,20.1,46.523,24.607,46.727,24.651a.734.734,0,0,1,.63.921.918.918,0,0,1-.89.505Z" transform="translate(-46.499 -195.543)" fill="#fff"/>
      <path id="Path_34608" data-name="Path 34608" d="M190.24,328.343a.9.9,0,0,1-.853-.475c-5.952-12.244-7.306-38.441-7.417-39.555a.849.849,0,0,1,.89-.773.922.922,0,0,1,.964.713c0,.267,1.391,27.058,7.232,39.08a.609.609,0,0,1-.017.573.874.874,0,0,1-.521.393A1.179,1.179,0,0,1,190.24,328.343Z" transform="translate(-26.67 -189.034)" fill="#fff"/>
      <path id="Path_34609" data-name="Path 34609" d="M189.087,329.089q-2.564.016-5.118-.208c-.512-.049-.877-.422-.816-.832a.912.912,0,0,1,1.038-.654c.167,0,17.43,1.575,25.348-4.889a1.07,1.07,0,0,1,.919-.244.859.859,0,0,1,.689.545.66.66,0,0,1-.291.74C205.126,328.286,195.132,329.089,189.087,329.089Z" transform="translate(-25.665 -172.171)" fill="#fff"/>
    </g>
    <g id="freepik--Gear--inject-35" transform="translate(45.761 0)">
      <path id="Path_34610" data-name="Path 34610" d="M212.713,144.026l-2-9.257-10.31,5.439a12.436,12.436,0,0,0-3.912-3.819l4.932-10.7-9.271-1.649-6.787,10.4a29.876,29.876,0,0,0-7.065,1.843l-2.948-7.846-11.014,6.939.723,9.213a52.41,52.41,0,0,0-6.082,6.449l-9.086-.371-6.379,11.456,7.806,2.675a30.119,30.119,0,0,0-1.539,7.251l-9.92,7.311,1.984,9.272,10.328-5.438a12.209,12.209,0,0,0,3.912,3.8l-4.84,10.713,9.271,1.635,9.716-7.578c2.244-.282,1.687-3.67,4.135-4.636l2.948,7.816,11-6.924-.278-3.626c2.225-1.991,10.643-6.375,12.461-8.663l2.281-2.972,6.379-11.456L206.187,157l-3.3-5.617ZM179.059,174.5c-8.455,5.32-11.126,6.493-12.553-.624s3.412-17.935,11.867-23.269,11.682-5.706,13.2,1.4S187.533,169.242,179.059,174.5Z" transform="translate(-62.668 -67.709)" fill="#d0e2d5"/>
      <path id="Path_34611" data-name="Path 34611" d="M171.227,124.04l12.034,5.557-6.787,10.372-12.034-5.557Z" transform="translate(-41.67 -67.709)" fill="#d0e2d4"/>
      <path id="Path_34612" data-name="Path 34612" d="M194.854,136.817l-10.31,5.438L172.51,136.7l10.31-5.438Z" transform="translate(-34.776 -64.201)" fill="#d0e2d4"/>
      <path id="Path_34613" data-name="Path 34613" d="M192.811,155.517,185,152.857,172.97,147.3l7.806,2.66Z" transform="translate(-34.383 -56.406)" fill="#e0e0e0"/>
      <path id="Path_34614" data-name="Path 34614" d="M145.99,177.123l12.034,5.542,4.932-10.7-12.034-5.557Z" transform="translate(-57.431 -47.121)" fill="#e5e5e5"/>
      <path id="Path_34615" data-name="Path 34615" d="M173.384,179.873l-12.016-5.557L158.42,166.5l12.034,5.557Z" transform="translate(-46.813 -47.077)" fill="#e5e5e5"/>
      <path id="Path_34616" data-name="Path 34616" d="M219.151,147.766l-1.984-9.257-10.31,5.438a12.5,12.5,0,0,0-3.931-3.819l4.932-10.7-9.179-1.649-6.805,10.4a29.88,29.88,0,0,0-7.065,1.843l-2.93-7.816-11.014,6.939.723,9.213a52.289,52.289,0,0,0-6.082,6.493l-9.1-.371-6.379,11.456,7.806,2.675a30.991,30.991,0,0,0-1.539,7.266l-9.9,7.207,1.984,9.272,10.31-5.439a12.456,12.456,0,0,0,3.931,3.8l-4.932,10.7,9.271,1.649,6.787-10.4a29.161,29.161,0,0,0,7.083-1.857l2.93,7.816,11.014-6.924-.723-9.213a52.4,52.4,0,0,0,6.082-6.449l9.1.357,6.379-11.456-7.918-2.66a30.287,30.287,0,0,0,1.558-7.266ZM185.533,178.3c-8.437,5.32-16.521,3.878-18.06-3.224s4.079-17.192,12.535-22.512,16.521-3.863,18.06,3.239S193.989,172.982,185.533,178.3Z" transform="translate(-57.089 -65.892)" fill="#bed1c2"/>
      <path id="Path_34617" data-name="Path 34617" d="M176.148,132.557,164.114,127,153.1,133.939l12.034,5.557Z" transform="translate(-51.357 -66.271)" fill="#d0e2d4"/>
      <path id="Path_34618" data-name="Path 34618" d="M153.1,131.67l.723,9.213,12.034,5.557-.723-9.213Z" transform="translate(-51.357 -64.001)" fill="#e5e5e5"/>
      <path id="Path_34619" data-name="Path 34619" d="M166.43,147.884,154.4,142.327l-9.086-.357,12.016,5.557Z" transform="translate(-58.012 -58.996)" fill="#d0e2d4"/>
      <path id="Path_34620" data-name="Path 34620" d="M148.249,141.97l-6.379,11.442,12.016,5.557,6.379-11.442Z" transform="translate(-60.951 -58.996)" fill="#e5e5e5"/>
      <path id="Path_34621" data-name="Path 34621" d="M161.836,161.907,149.82,156.35l-9.92,7.311,12.016,5.557Z" transform="translate(-62.633 -52.009)" fill="#d0e2d4"/>
      <path id="Path_34622" data-name="Path 34622" d="M153.918,176.1l-12.034-5.557L139.9,161.27l12.016,5.557Z" transform="translate(-62.633 -49.618)" fill="#e5e5e5"/>
      <path id="Path_34623" data-name="Path 34623" d="M180.134,129.6,168.1,124.04l9.2,1.649,12.016,5.557Z" transform="translate(-38.544 -67.709)" fill="#d0e2d4"/>
      <path id="Path_34624" data-name="Path 34624" d="M194.391,120.425V106.591l-13.74,4.963A18.271,18.271,0,0,0,176.943,105L185.6,91.019,175.033,86.13l-10.792,13a30.321,30.321,0,0,0-8.937.7l-1.52-12.021-14.945,6.924-1.5,13.373a67.049,67.049,0,0,0-8.937,7.578l-10.792-2.972-10.569,14.681,8.641,5.944a51.215,51.215,0,0,0-3.708,9.985l-13.74,7.742v13.849l13.74-4.963a18.269,18.269,0,0,0,3.708,6.553l-8.6,14,10.569,4.889,10.792-13a30.368,30.368,0,0,0,8.937-.7l1.5,12.021,14.945-6.924,1.521-13.373a29.014,29.014,0,0,0,11.978-6.746l7.751,2.184,10.569-14.666-6.49-4.458a25.134,25.134,0,0,0,1.539-11.486Zm-48.081,34.562c-11.459,5.3-18.542,1.486-18.542-9.079s9.475-23.626,20.953-28.931,18.413-1.486,18.413,9.168-9.345,23.522-20.823,28.842Z" transform="translate(-98.23 -86.13)" fill="#d0e2d5"/>
      <path id="Path_34625" data-name="Path 34625" d="M156.637,91.672,144.622,86.13l-10.792,13,12.015,5.557Z" transform="translate(-67.819 -86.13)" fill="#d0e2d4"/>
      <path id="Path_34626" data-name="Path 34626" d="M168.454,105.457,156.42,99.9l-13.74,4.963,12.034,5.557Z" transform="translate(-60.259 -79.439)" fill="#d0e2d4"/>
      <path id="Path_34627" data-name="Path 34627" d="M132.837,161.288l-12.016-5.557-1.5-12.021,12.016,5.557Z" transform="translate(-80.214 -58.151)" fill="#e5e5e5"/>
      <path id="Path_34628" data-name="Path 34628" d="M102.97,154.212,115,159.77l8.659-13.982-12.034-5.557Z" transform="translate(-94.181 -59.842)" fill="#e5e5e5"/>
      <path id="Path_34629" data-name="Path 34629" d="M200.881,124.234V110.4l-13.74,4.918a18.012,18.012,0,0,0-3.709-6.553l8.659-13.982-10.569-4.9L170.731,102.9a29.837,29.837,0,0,0-8.938.7l-1.52-12.051-14.945,6.924-1.52,13.373a68.228,68.228,0,0,0-8.937,7.578l-10.792-2.972-10.569,14.681,8.659,5.944a50.043,50.043,0,0,0-3.709,9.985L104.72,154.8v13.849l13.74-4.963a18,18,0,0,0,3.709,6.553l-8.659,13.982,10.569,4.889,10.792-13a30.321,30.321,0,0,0,8.937-.7l1.52,12.021,14.945-6.924,1.5-13.373a67.045,67.045,0,0,0,8.937-7.578l10.792,2.972,10.569-14.666-8.659-5.944a50.108,50.108,0,0,0,3.708-9.985ZM152.8,158.8c-11.478,5.3-20.786,1-20.786-9.614s9.271-23.522,20.786-28.842,20.768-1,20.768,9.614S164.26,153.4,152.8,158.723Z" transform="translate(-92.686 -84.308)" fill="#bed1c2"/>
      <path id="Path_34630" data-name="Path 34630" d="M119.472,107.031l12.016,5.557L120.7,109.572,108.68,104Z" transform="translate(-89.303 -77.447)" fill="#d0e2d4"/>
      <path id="Path_35380" data-name="Path 35380" d="M0,0,18,1.819l1.194,13.2-18-1.819Z" transform="translate(8.804 41.255) rotate(-60.02)" fill="#d0e2d4"/>
      <path id="Path_34631" data-name="Path 34631" d="M102.97,113.88,115,119.437l8.659,5.973-12.034-5.542Z" transform="translate(-94.181 -72.646)" fill="#e5e5e5"/>
      <path id="Path_34632" data-name="Path 34632" d="M111.97,124.63,124,130.187l-13.74,7.742L98.23,132.372Z" transform="translate(-98.23 -67.422)" fill="#d0e2d4"/>
      <path id="Path_34633" data-name="Path 34633" d="M98.23,129.84l12.034,5.557v13.849L98.23,143.689Z" transform="translate(-98.23 -64.891)" fill="#e5e5e5"/>
      <path id="Path_34634" data-name="Path 34634" d="M147.109,92.817,135.075,87.26,120.13,94.184l12.016,5.557Z" transform="translate(-79.522 -85.581)" fill="#d0e2d4"/>
    </g>
    <g id="freepik--Device--inject-35" transform="translate(243.705 0.051)">
      <path id="Path_34635" data-name="Path 34635" d="M228.9,388.027l174.3-80.656a1.5,1.5,0,0,0,0-2.972l-16.113-7.43a8.762,8.762,0,0,0-6.434,0L206.3,377.551a1.5,1.5,0,0,0,0,2.972l16.169,7.43A8.76,8.76,0,0,0,228.9,388.027Z" transform="translate(-204.982 15.972)" fill="#e0e0e0"/>
      <path id="Path_34636" data-name="Path 34636" d="M385.405,94.487,228.239,167.208c-4.738,2.478-7.72,6.617-8.029,11.144V477.125c0,4.1,3.6,5.766,8.029,3.715L385.405,408.12c4.745-2.473,7.729-6.615,8.029-11.144V98.2C393.434,94.1,389.855,92.437,385.405,94.487Z" transform="translate(-191.973 -82.547)" fill="#455a64"/>
      <path id="Path_34637" data-name="Path 34637" d="M237.567,170.825,394.733,98.1c3.968-1.843,7.25-.7,7.918,2.5-.75-4.063-3.631-7.675-7.918-9.926L388.207,87.7a21.715,21.715,0,0,0-16.058,0L214.964,160.365a15.052,15.052,0,0,0-5.674,4.8l22.6,10.4A14.84,14.84,0,0,1,237.567,170.825Z" transform="translate(-201.301 -86.164)" fill="#37474f"/>
      <path id="Path_34638" data-name="Path 34638" d="M208,444.429c.309,4.527,3.29,8.666,8.029,11.144l6.545,2.972a22.072,22.072,0,0,0,14.686.505c-3.709,1.159-6.657-.55-6.657-4.22V156.116a11.272,11.272,0,0,1,2.355-6.345l-22.6-10.4A11.423,11.423,0,0,0,208,145.655Z" transform="translate(-202.403 -60.311)" fill="#263238"/>
      <path id="Path_34639" data-name="Path 34639" d="M229.065,192.574,377.647,123.85c2.67-1.218,4.821-.223,4.821,2.229V347.213a8.371,8.371,0,0,1-4.821,6.687L229.121,422.623c-2.67,1.233-4.821.238-4.821-2.229V199.26a8.361,8.361,0,0,1,4.766-6.687Z" transform="translate(-188.479 -68.105)" fill="#ddf1e2"/>
      <path id="Path_34640" data-name="Path 34640" d="M268.219,126.39a4.933,4.933,0,0,0-2.819,3.923c0,1.486,1.261,2.036,2.819,1.308a4.89,4.89,0,0,0,2.818-3.923C271.037,126.256,269.776,125.676,268.219,126.39Z" transform="translate(-153.369 -66.766)" fill="#37474f"/>
      <path id="Path_34641" data-name="Path 34641" d="M272.046,309.139c-6.574,3.446-10.706,9.2-11.125,15.483,0,5.691,4.988,8.009,11.125,5.156,6.572-3.448,10.7-9.2,11.125-15.483C283.208,308.6,278.2,306.286,272.046,309.139Z" transform="translate(-157.196 21.59)" fill="#37474f"/>
      <path id="Path_34642" data-name="Path 34642" d="M255.093,141.972c-3.3,1.758-5.37,4.671-5.563,7.846,0,2.883,2.522,4.057,5.563,2.615,3.34-1.742,5.442-4.657,5.656-7.846C260.748,141.7,258.227,140.53,255.093,141.972Z" transform="translate(-166.926 -59.346)" fill="#37474f"/>
      <path id="Path_34643" data-name="Path 34643" d="M260,148.628c0,1.932,1.854,2.66,4.024,1.635l37.085-17.192a6.852,6.852,0,0,0,4.024-5.349c0-1.917-1.854-2.645-4.024-1.62l-37.085,17.192A6.857,6.857,0,0,0,260,148.628Z" transform="translate(-157.982 -66.984)" fill="#37474f"/>
      <path id="Path_34644" data-name="Path 34644" d="M216.836,176.53a7.876,7.876,0,0,1,4.524,6.271c0,2.318-2.021,3.254-4.524,2.1a7.882,7.882,0,0,1-4.506-6.271C212.33,176.322,214.351,175.385,216.836,176.53Z" transform="translate(-198.704 -42.491)" fill="#37474f"/>
      <path id="Path_34645" data-name="Path 34645" d="M216.836,195.313a7.876,7.876,0,0,1,4.524,6.271c0,2.3-2.021,3.239-4.524,2.1a7.882,7.882,0,0,1-4.506-6.271C212.33,195.09,214.351,194.153,216.836,195.313Z" transform="translate(-198.704 -33.369)" fill="#37474f"/>
      <path id="Path_34646" data-name="Path 34646" d="M216.084,176.906a7.875,7.875,0,0,1,4.524,6.271c0,2.3-2.021,3.239-4.524,2.1A7.876,7.876,0,0,1,211.56,179C211.579,176.683,213.6,175.792,216.084,176.906Z" transform="translate(-199.362 -42.303)" fill="#455a64"/>
      <path id="Path_34647" data-name="Path 34647" d="M216.084,195.68a7.871,7.871,0,0,1,4.524,6.285c0,2.3-2.021,3.239-4.524,2.08a7.833,7.833,0,0,1-4.524-6.271C211.579,195.472,213.6,194.535,216.084,195.68Z" transform="translate(-199.362 -33.186)" fill="#455a64"/>
      <path id="Path_34648" data-name="Path 34648" d="M398.688,130.792c0-2.467-2.151-3.462-4.821-2.229l-17.782,8.217L245.341,197.287a8.371,8.371,0,0,0-4.821,6.687V425.048c0,2.467,2.151,3.462,4.821,2.229l130.8-60.521,17.727-8.2a8.371,8.371,0,0,0,4.821-6.687Z" transform="translate(-174.623 -65.819)" fill="#ddf1e2"/>
      <path id="Path_34649" data-name="Path 34649" d="M401.4,131.294a3.649,3.649,0,0,0-2.343-3.782,5.758,5.758,0,0,0-5.259.26l-16.966,7.86h0L245.276,196.556c-3.438,1.739-5.588,4.723-5.748,7.979V425.55a3.917,3.917,0,0,0,2.336,3.789,5.086,5.086,0,0,0,2.188.461,7.534,7.534,0,0,0,3.078-.728l131.652-60.923h0l16.929-7.831c3.417-1.755,5.56-4.73,5.748-7.979ZM376.872,365.609h0l-1.52.713h0l-130,60.15a2.222,2.222,0,0,1-1.558.267c-.241-.119-.482-.535-.482-1.218V204.476a7.02,7.02,0,0,1,3.894-5.409l129.872-60.18h0l18.542-8.6a2.222,2.222,0,0,1,1.557-.267c.241.119.482.535.482,1.218V352.369a7.02,7.02,0,0,1-3.894,5.409l-16.929,7.831Z" transform="translate(-175.485 -66.322)" fill="#57bb72"/>
      <path id="Path_34650" data-name="Path 34650" d="M297.052,165.54c16.688-7.7,30.132-1.486,30.132,13.953s-13.5,34.176-30.132,41.814-30.132,1.486-30.132-13.938S280.419,173.252,297.052,165.54Z" transform="translate(-152.071 -49.199)" fill="#57bb71"/>
      <path id="Path_34651" data-name="Path 34651" d="M287.672,172.97c5.4-2.5,9.772-.475,9.772,4.458-.372,5.512-4,10.551-9.772,13.566-5.4,2.5-9.772.475-9.772-4.458C278.272,181.025,281.9,175.985,287.672,172.97Z" transform="translate(-142.691 -44.504)" fill="#57bb72"/>
      <path id="Path_34652" data-name="Path 34652" d="M310.8,193.544c0-8.2-7.176-11.531-16.058-7.43l-5.563,2.571c-8.863,4.1-16.058,14.087-16.058,22.289v2.214c5.136,1.352,11.589.624,18.543-2.63a55.2,55.2,0,0,0,19.043-15.112Z" transform="translate(-146.774 -38.45)" fill="#57bb72"/>
      <path id="Path_34653" data-name="Path 34653" d="M287.672,172.97c5.4-2.5,9.772-.475,9.772,4.458-.372,5.512-4,10.551-9.772,13.566-5.4,2.5-9.772.475-9.772-4.458C278.272,181.025,281.9,175.985,287.672,172.97Z" transform="translate(-142.691 -44.504)" fill="#fff" opacity="0.7"/>
      <path id="Path_34654" data-name="Path 34654" d="M310.8,193.544c0-8.2-7.176-11.531-16.058-7.43l-5.563,2.571c-8.863,4.1-16.058,14.087-16.058,22.289v2.214c5.136,1.352,11.589.624,18.543-2.63a55.2,55.2,0,0,0,19.043-15.112Z" transform="translate(-146.774 -38.45)" fill="#fff" opacity="0.7"/>
      <path id="Path_34655" data-name="Path 34655" d="M253.208,230.82l38.772-17.935c1.854-.817,3.208-.163,3.208,1.486V215.4a5.578,5.578,0,0,1-3.208,4.458l-38.772,17.935c-1.761.817-3.208.149-3.208-1.486v-1.025A5.593,5.593,0,0,1,253.208,230.82Z" transform="translate(-166.525 -24.76)" fill="#57bb72"/>
      <path id="Path_34656" data-name="Path 34656" d="M253.208,230.82l38.772-17.935c1.854-.817,3.208-.163,3.208,1.486V215.4a5.578,5.578,0,0,1-3.208,4.458l-38.772,17.935c-1.761.817-3.208.149-3.208-1.486v-1.025A5.593,5.593,0,0,1,253.208,230.82Z" transform="translate(-166.525 -24.76)" opacity="0.1"/>
      <path id="Path_34657" data-name="Path 34657" d="M251.613,257.215l117.3-54.266c.871-.416,1.595-.089,1.595.743v10.966a2.828,2.828,0,0,1-1.595,2.229l-117.3,54.266c-.89.416-1.613.074-1.613-.743V259.444a2.807,2.807,0,0,1,1.613-2.229Z" transform="translate(-166.525 -29.504)" fill="#57bb72"/>
      <path id="Path_34658" data-name="Path 34658" d="M251.613,257.215l117.3-54.266c.871-.416,1.595-.089,1.595.743v10.966a2.828,2.828,0,0,1-1.595,2.229l-117.3,54.266c-.89.416-1.613.074-1.613-.743V259.444a2.807,2.807,0,0,1,1.613-2.229Z" transform="translate(-166.525 -29.504)" fill="#fff" opacity="0.2"/>
      <path id="Path_34659" data-name="Path 34659" d="M253.208,263.649l38.772-17.935c1.854-.817,3.208-.149,3.208,1.486v1.025a5.564,5.564,0,0,1-3.208,4.458l-38.772,17.935c-1.761.832-3.208.163-3.208-1.486v-1.025a5.621,5.621,0,0,1,3.208-4.458Z" transform="translate(-166.525 -8.806)" fill="#57bb72"/>
      <path id="Path_34660" data-name="Path 34660" d="M253.208,263.649l38.772-17.935c1.854-.817,3.208-.149,3.208,1.486v1.025a5.564,5.564,0,0,1-3.208,4.458l-38.772,17.935c-1.761.832-3.208.163-3.208-1.486v-1.025a5.621,5.621,0,0,1,3.208-4.458Z" transform="translate(-166.525 -8.806)" opacity="0.1"/>
      <path id="Path_34661" data-name="Path 34661" d="M251.613,290.044l117.3-54.266c.871-.416,1.595-.074,1.595.743v10.966a2.828,2.828,0,0,1-1.595,2.229l-117.3,54.266c-.89.416-1.613.089-1.613-.743V292.273a2.807,2.807,0,0,1,1.613-2.229Z" transform="translate(-166.525 -13.551)" fill="#57bb72"/>
      <path id="Path_34662" data-name="Path 34662" d="M251.613,290.044l117.3-54.266c.871-.416,1.595-.074,1.595.743v10.966a2.828,2.828,0,0,1-1.595,2.229l-117.3,54.266c-.89.416-1.613.089-1.613-.743V292.273a2.807,2.807,0,0,1,1.613-2.229Z" transform="translate(-166.525 -13.551)" fill="#fff" opacity="0.2"/>
      <path id="Path_34663" data-name="Path 34663" d="M277.578,283.549l46.356-21.412c1.854-.832,3.226-.164,3.226,1.486v11.471a5.586,5.586,0,0,1-3.226,4.458l-46.356,21.427c-1.854.817-3.208.149-3.208-1.486V288.007A5.636,5.636,0,0,1,277.578,283.549Z" transform="translate(-145.707 -0.83)" fill="#57bb72"/>
      <path id="Path_34664" data-name="Path 34664" d="M277.578,283.549l46.356-21.412c1.854-.832,3.226-.164,3.226,1.486v11.471a5.586,5.586,0,0,1-3.226,4.458l-46.356,21.427c-1.854.817-3.208.149-3.208-1.486V288.007A5.636,5.636,0,0,1,277.578,283.549Z" transform="translate(-145.707 -0.83)" opacity="0.1"/>
    </g>
    <g id="freepik--Character--inject-35" transform="translate(438.215 158.069)">
      <path id="Path_34665" data-name="Path 34665" d="M357.014,260.29s-22.77-25.171-24.105-28.232c-1.057-2.259,0-5.617.334-7.177s.63-5.037.964-5.944c.556-1.694-2.169-1.352-3.709.193s-2.058,4.636-2.856,5.141-6.861-6.583-10.031-9.852-5.155-5.26-7.1-4.042c-1.391.877-.352,2.779,1.947,5.572a50.219,50.219,0,0,1,3.708,4.681c.352.609-1.539.654-2.559,1.917-.8.981,0,2.571-1.112,3.329a2.463,2.463,0,0,0-.89,3.67,27.585,27.585,0,0,0,7.843,6.657c3.412,1.887,4.784,2.556,6.805,5.126s20.156,28.827,21.379,30.4,3.579,4.785,7.157,4.874,32.876-20.119,34.378-21.13c4.821-3.224,6.36-3.685,7.176-.788a23.4,23.4,0,0,1,.63,3.12c.575,3.685,3.709,16.85,3.709,16.85s14.834,5.75,27.016,2.972,16.3-6.924,16.3-6.924l-6.1-7.964c1.65-3.284,9.271-16.6,11.737-25.914l-38.2-4.948c-.779-.134-2.04-.386-3.708-.728-2.1-.446-7.417-1.917-11.441.906-13.128,9.168-39.236,28.232-39.236,28.232" transform="translate(-309.881 -184.001)" fill="#ffa8a7"/>
      <path id="Path_34666" data-name="Path 34666" d="M379.292,347.868l-6.842,7.623a27.581,27.581,0,0,0,9.939,1.709c6.138.178,7.825-1.486,8.047-1.813,1.038-1.783-.575-4.993-1.02-7.757Z" transform="translate(-256.432 -117.132)" fill="#37474f"/>
      <path id="Path_34667" data-name="Path 34667" d="M383.352,350.815s-8.307-.431-14.037-1-10.273,1.664-8.938,3.551,4.506,3.462,9.438,4.785c4.209,1.144,9.271,1.961,13.647,2.972s7.417,2.333,9.957,1.62c2.837-.788,4.061-1.694,3.82-3.358a60.957,60.957,0,0,0-2.3-7.014Z" transform="translate(-266.945 -116.112)" fill="#37474f"/>
      <path id="Path_34668" data-name="Path 34668" d="M387.4,342.907s-1.038,6.924-1.112,8.41-8.437,1.961-10.032-.758l-.26-8.47Z" transform="translate(-253.4 -119.824)" fill="#f28f8f"/>
      <path id="Path_34669" data-name="Path 34669" d="M388.685,345.5l2.985,10.52s.278,1.278-6.546,2.1-17.541-2.868-19.377-3.611-2.04-2.244,4.673-1.947,9.086.312,9.086.312l-2.188-4.651Z" transform="translate(-263.099 -118.167)" fill="#ffa8a7"/>
      <path id="Path_34670" data-name="Path 34670" d="M389.1,228.345l4.728-1.055s9.883,25.067,10.977,27.49,2.336,4.978.2,7.964c-2.54,3.551-15.909,17.831-15.909,17.831l-8.493-6.657,9.642-14.146-8.529-13.819Z" transform="translate(-249.461 -175.607)" fill="#f28f8f"/>
      <path id="Path_34671" data-name="Path 34671" d="M359.754,212.69a9.267,9.267,0,0,1,.2-10.8c4.71-7,15.2-10.4,27.7-9.109A23.684,23.684,0,0,1,404,202.986c4.116,6.375,4.506,19.213,5.563,24.072Z" transform="translate(-268.676 -192.508)" fill="#37474f"/>
      <path id="Path_34672" data-name="Path 34672" d="M359.976,207.94s-2.967,4.532-2.448,4.948a9.043,9.043,0,0,0,2.485.743Z" transform="translate(-269.231 -185.01)" fill="#ffa8a7"/>
      <path id="Path_34673" data-name="Path 34673" d="M367.851,198.9c-3.226,1.679-8.789,4.77-9.03,14.948-.26,10.4,1.595,13.834,3.523,15.037,1.3.817,8.919.4,12.182-.208s12.664-4.339,16.058-10c3.987-6.657,3.171-16.345-2.744-19.317a25.19,25.19,0,0,0-19.989-.461Z" transform="translate(-268.095 -190.297)" fill="#ffa8a7"/>
      <path id="Path_34674" data-name="Path 34674" d="M390.693,250.82c5.711,7.132,11.125,13.373,12.312,21.427,2.448,16.925-5.563,36.271-7.287,48.8a19.935,19.935,0,0,1,5.377,12.214c0,5.186-10.4,54-10.4,54s-7.565,1.843-11.4-.817l-7.139-89.794,3.708-10.936Z" transform="translate(-256.688 -164.174)" fill="#57bb72"/>
      <path id="Path_34675" data-name="Path 34675" d="M390.693,250.82c5.711,7.132,11.125,13.373,12.312,21.427,2.448,16.925-5.563,36.271-7.287,48.8a19.935,19.935,0,0,1,5.377,12.214c0,5.186-10.4,54-10.4,54s-7.565,1.843-11.4-.817l-7.139-89.794,3.708-10.936Z" transform="translate(-256.688 -164.174)" opacity="0.2"/>
      <path id="Path_34676" data-name="Path 34676" d="M372.15,287.36l3.708-10.936a105.35,105.35,0,0,0,20.4-6.493s-3.857,5.632-14.945,8.722l-5.729,14.042-.482,32.17Z" transform="translate(-256.688 -154.888)" fill="#57bb72"/>
      <path id="Path_34677" data-name="Path 34677" d="M372.15,287.36l3.708-10.936a105.35,105.35,0,0,0,20.4-6.493s-3.857,5.632-14.945,8.722l-5.729,14.042-.482,32.17Z" transform="translate(-256.688 -154.888)" opacity="0.3"/>
      <path id="Path_34678" data-name="Path 34678" d="M407.42,250.82c3.059,4.012,10.365,10.847,8.808,17.43-1.854,7.964-7.232,13.566-23.586,17.46l-15.353,44.577s7.992,5.944,10.439,11.694S399,391.536,399,391.536s-2.744,3.581-11.367,2.719c0,0-30.057-54.979-32.171-58.56a14.845,14.845,0,0,1-2.54-11.962c.946-5.765,11.125-68.872,11.125-68.872Z" transform="translate(-273.416 -164.174)" fill="#57bb72"/>
      <path id="Path_34679" data-name="Path 34679" d="M407.42,250.82c3.059,4.012,10.365,10.847,8.808,17.43-1.854,7.964-7.232,13.566-23.586,17.46l-15.353,44.577s7.992,5.944,10.439,11.694S399,391.536,399,391.536s-2.744,3.581-11.367,2.719c0,0-30.057-54.979-32.171-58.56a14.845,14.845,0,0,1-2.54-11.962c.946-5.765,11.125-68.872,11.125-68.872Z" transform="translate(-273.416 -164.174)" opacity="0.2"/>
      <path id="Path_34680" data-name="Path 34680" d="M409.767,229.856l-38.2-4.948c-.779-.134-2.04-.386-3.708-.728h0s-1.632,19.2-11.441,23.6h0c.241.921.445,1.947.63,3.12.575,3.685,3.708,16.85,3.708,16.85s14.834,5.751,27.016,2.972,16.3-6.924,16.3-6.924l-6.1-7.965C399.68,252.516,407.356,239.2,409.767,229.856Z" transform="translate(-270.126 -177.119)" fill="#57bb72"/>
      <path id="Path_34681" data-name="Path 34681" d="M409.767,229.856l-38.2-4.948c-.779-.134-2.04-.386-3.708-.728h0s-1.632,19.2-11.441,23.6h0c.241.921.445,1.947.63,3.12.575,3.685,3.708,16.85,3.708,16.85s14.834,5.751,27.016,2.972,16.3-6.924,16.3-6.924l-6.1-7.965C399.68,252.516,407.356,239.2,409.767,229.856Z" transform="translate(-270.126 -177.119)" fill="#fff" opacity="0.7"/>
      <path id="Path_34682" data-name="Path 34682" d="M387.081,243.35a120.592,120.592,0,0,1-15.891,6.285,35.659,35.659,0,0,0,14.222-3.15Z" transform="translate(-257.508 -167.804)" fill="#57bb72"/>
      <path id="Path_34683" data-name="Path 34683" d="M363.35,200.31s-1.854,9.658,2.522,15.335c0,0,1.632-3.848,5.693-3.12s4.283,5.022,1.428,7.43a6.864,6.864,0,0,1-6.008,1.486s-.649,6.984-1,12.838-2.281,18.619,5.934,23.775,28.833,6.969,38.494-3.849c5.377-6.018-1.762-16.657-5.081-28.589-3.059-10.966-4.784-27.222-19.3-29.837S363.35,200.31,363.35,200.31Z" transform="translate(-264.54 -191.199)" fill="#37474f"/>
    </g>
    <g id="freepik--Cloud--inject-35" transform="translate(522.952 25.064)">
      <path id="Path_34684" data-name="Path 34684" d="M422.926,113.15l-3.06,1.486a10.522,10.522,0,0,0,.427-2.66c0-4.978-4.358-6.984-9.735-4.458a16.723,16.723,0,0,0-4.32,2.972h0c0-6.687-5.859-9.406-13.091-6.063-7.729,4.039-12.591,10.789-13.091,18.173v1a9.537,9.537,0,0,0-5.322.981c-5.747,3-9.363,8.018-9.735,13.507a7.346,7.346,0,0,0,.241,1.872l-1.632.758c-4.432,2.051-8.029,6.048-8.029,8.916s3.6,3.551,8.029,1.486L422.945,123.7c4.432-2.051,8.029-6.048,8.029-8.915S427.358,111.085,422.926,113.15Z" transform="translate(-355.58 -102.997)" fill="#d2d2d2"/>
    </g>
  </g>
</svg>
